<svg id="Capa_1" data-name="Capa 1" xmlns="http://www.w3.org/2000/svg" xmlns:xlink="http://www.w3.org/1999/xlink" viewBox="0 0 446 140"><defs><style>.cls-1{fill:none;}.cls-2{clip-path:url(#clip-path);}.cls-3{clip-path:url(#clip-path-2);}.cls-4{fill:url(#Degradado_sin_nombre);}.cls-5{clip-path:url(#clip-path-3);}.cls-6{fill:url(#Degradado_sin_nombre_2);}.cls-7{clip-path:url(#clip-path-4);}.cls-8{fill:url(#Degradado_sin_nombre_3);}.cls-9{fill:#fff;}</style><clipPath id="clip-path"><rect class="cls-1" x="0.33" y="0.23" width="446.35" height="139.54"/></clipPath><clipPath id="clip-path-2"><path class="cls-1" d="M34.38,107.88c-6.85,1.26-16.5,3.27-23.5-7.56,3.66,6.22,14.25,26.31,14.25,26.31l1,1.51c6.85,11,10.21,11.69,17.07,11.69h81.48c5.07,0,8.24,0,12.43-4.54h0a39.25,39.25,0,0,0,5.22-7.07l.76-1.21.75-1.35c1.23-2.4,4.34-8.31,7.11-13.17l6.48-12.09C149.52,113,134,108,134,108L85.35,96.74l-1.51-.32Z"/></clipPath><linearGradient id="Degradado_sin_nombre" x1="-1563.3" y1="88.71" x2="-1562.72" y2="88.71" gradientTransform="matrix(224.25, 0, 0, -224.25, 350590.2, 20011.49)" gradientUnits="userSpaceOnUse"><stop offset="0" stop-color="#003869"/><stop offset="0.04" stop-color="#003869"/><stop offset="0.15" stop-color="#1961ac"/><stop offset="0.19" stop-color="#146bb5"/><stop offset="0.26" stop-color="#0687cc"/><stop offset="0.29" stop-color="#0093d6"/><stop offset="0.39" stop-color="#12a6e1"/><stop offset="0.5" stop-color="#29bdef"/><stop offset="0.63" stop-color="#0b9edd"/><stop offset="0.71" stop-color="#0093d6"/><stop offset="0.77" stop-color="#0981c7"/><stop offset="0.86" stop-color="#1961ac"/><stop offset="1" stop-color="#003869"/></linearGradient><clipPath id="clip-path-3"><path class="cls-1" d="M110.73.23H74.45a10.58,10.58,0,0,1,9.73,6.53L134,108s8.89,15.38,3,27.14a39.6,39.6,0,0,0,5.22-7.07l.75-1.21.76-1.35c1.23-2.4,4.34-8.31,7.11-13.17L166,84.49c3.82-7.32,3.43-10-10.78-32.38L129.45,7.41C126.05,2.07,123.77.23,111,.23Z"/></clipPath><linearGradient id="Degradado_sin_nombre_2" x1="-1576.42" y1="89.89" x2="-1575.84" y2="89.89" gradientTransform="matrix(0, -235.86, -235.86, 0, 21322.85, -371691.06)" gradientUnits="userSpaceOnUse"><stop offset="0" stop-color="#0093d6"/><stop offset="0.04" stop-color="#0899d9"/><stop offset="0.11" stop-color="#1ea8e2"/><stop offset="0.2" stop-color="#42c2ef"/><stop offset="0.22" stop-color="#49c7f2"/><stop offset="0.24" stop-color="#35c2f0"/><stop offset="0.3" stop-color="#0ab7eb"/><stop offset="0.75" stop-color="#0093d6"/><stop offset="0.91" stop-color="#1961ac"/><stop offset="0.99" stop-color="#003869"/><stop offset="1" stop-color="#003869"/></linearGradient><clipPath id="clip-path-4"><path class="cls-1" d="M73.18.23H57.32c-12.76,0-15,1.84-18.43,7.18L13.18,52.15C-1,74.54-1.44,77.22,2.45,84.54l15.12,27.82c2.79,4.85,5.88,10.76,7.13,13.17l.73,1.34.79,1.21a37.62,37.62,0,0,0,5.18,7c-5.8-11.76,3-27.14,3-27.14L84.32,6.76A10.59,10.59,0,0,1,93.89.23Z"/></clipPath><linearGradient id="Degradado_sin_nombre_3" x1="-1570.86" y1="86.08" x2="-1570.32" y2="86.08" gradientTransform="matrix(253.15, 0, 0, -253.15, 397643.68, 21857.76)" gradientUnits="userSpaceOnUse"><stop offset="0" stop-color="#007bc2"/><stop offset="0.15" stop-color="#007bc2"/><stop offset="0.16" stop-color="#007ec4"/><stop offset="0.28" stop-color="#008dd1"/><stop offset="0.38" stop-color="#0093d6"/><stop offset="0.41" stop-color="#089bdb"/><stop offset="0.53" stop-color="#1aaee6"/><stop offset="0.65" stop-color="#25b9ed"/><stop offset="0.78" stop-color="#29bdef"/><stop offset="0.94" stop-color="#60cef3"/><stop offset="1" stop-color="#60cef3"/></linearGradient></defs><g id="Capa_2" data-name="Capa 2"><g id="Capa_1-2" data-name="Capa 1-2"><g id="Ilustración_15" data-name="Ilustración 15"><g class="cls-2"><g class="cls-3"><rect class="cls-4" x="10.9" y="96.42" width="146.51" height="43.35"/></g><g class="cls-5"><rect class="cls-6" x="49.38" y="-13.94" width="145.47" height="163.26" transform="translate(-17.37 61.5) rotate(-26.46)"/></g><g class="cls-7"><rect class="cls-8" x="-35.36" y="-4.89" width="163.17" height="145.21" transform="translate(-34.95 79.21) rotate(-63.74)"/></g><g class="cls-2"><path class="cls-9" d="M228.93,35.11a45.12,45.12,0,0,1,22.46,6.28V55.78q-12.46-7.94-22.15-7.94a15.38,15.38,0,0,0-9.07,2.41,7.42,7.42,0,0,0-3.3,6.38c0,3.17,2,6,6.16,8.83q1.71,1.17,13.26,6.85a38.3,38.3,0,0,1,14.23,10.88,23.68,23.68,0,0,1,4.35,14.38,22.48,22.48,0,0,1-7.48,17.57,27.81,27.81,0,0,1-19.25,6.68A43.51,43.51,0,0,1,214.91,120a56.29,56.29,0,0,1-12.44-6.15v-16q12.87,11.25,24.19,11.24a15,15,0,0,0,9.07-2.6,8.13,8.13,0,0,0,3.49-6.85,10.93,10.93,0,0,0-6.05-9.56c-3.38-1.92-7.72-4.26-13-6.86a38.46,38.46,0,0,1-14.2-10.84,22.26,22.26,0,0,1-4.53-14,20.93,20.93,0,0,1,7.47-17,29.87,29.87,0,0,1,20-6.28"/><path class="cls-9" d="M303.66,36.18a26.36,26.36,0,0,1,18,6,19.16,19.16,0,0,1,6.87,15.12,18.21,18.21,0,0,1-2.9,10.22,19.67,19.67,0,0,1-8.43,7v.72a22.73,22.73,0,0,1,13.07,7.9,21.44,21.44,0,0,1,4.68,13.71,23.42,23.42,0,0,1-3.41,12.53,21.32,21.32,0,0,1-9.48,8.32,33.82,33.82,0,0,1-14.28,2.77H274.25V36.18Zm-4.14,35.11a14.44,14.44,0,0,0,9.72-3,10.82,10.82,0,0,0,3.54-8.51A9.69,9.69,0,0,0,309.51,52a12.5,12.5,0,0,0-8.61-2.89H289.72V71.29Zm3.61,36.58a19.15,19.15,0,0,0,11.89-3.1,10.88,10.88,0,0,0,4-9.07,10.22,10.22,0,0,0-4-8.47,17.19,17.19,0,0,0-10.69-3.1H289.72v23.72Z"/><path class="cls-9" d="M396.06,35.11a54.64,54.64,0,0,1,13.47,1.69,67,67,0,0,1,14.12,5.57V57.68a64.37,64.37,0,0,0-13.71-6.47,43.6,43.6,0,0,0-13.13-2,32.05,32.05,0,0,0-15.52,3.55A26.37,26.37,0,0,0,370.7,63.35a31.61,31.61,0,0,0-.06,30.2,26.18,26.18,0,0,0,10.68,10.36,32.37,32.37,0,0,0,15.53,3.67,39.93,39.93,0,0,0,12.59-2,89.67,89.67,0,0,0,15-7.09v15.36a65.59,65.59,0,0,1-14.35,6,57.83,57.83,0,0,1-15.27,1.83,47.68,47.68,0,0,1-22.68-5.34,38.87,38.87,0,0,1-15.71-15.32,43.5,43.5,0,0,1-5.71-21.89,44.58,44.58,0,0,1,5.91-22.86A40,40,0,0,1,373,40.6a48.57,48.57,0,0,1,23.22-5.49"/><path class="cls-9" d="M445.71,38.2a6.93,6.93,0,0,0-2.64-2.65,7.27,7.27,0,0,0-3.83-1,7.47,7.47,0,0,0-3.7,1,7.16,7.16,0,0,0-3.63,6.25,6.92,6.92,0,0,0,.95,3.61A7.37,7.37,0,0,0,439.24,49a7.26,7.26,0,0,0,6.43-10.76v-.08M444.5,44.7A5.75,5.75,0,0,1,442.22,47a6,6,0,0,1-3,.8,6.3,6.3,0,0,1-3-.78,6.19,6.19,0,0,1-2.28-2.15,6,6,0,0,1-.8-3,5.54,5.54,0,0,1,.8-3,5.69,5.69,0,0,1,2.28-2.28,5.93,5.93,0,0,1,3-.73,5.84,5.84,0,0,1,3,.8,6.11,6.11,0,0,1,2.28,2.15,5.73,5.73,0,0,1,0,5.9"/><path class="cls-9" d="M441.1,42.82a2.36,2.36,0,0,0-.79-.48h0a2.3,2.3,0,0,0,1.52-.68,2.07,2.07,0,0,0,.59-1.51,2,2,0,0,0-.65-1.52,2.63,2.63,0,0,0-1.77-.57h-3.77v7.68h1.44V42.57h.63a1.59,1.59,0,0,1,.88.21,3,3,0,0,1,.73.77,12.72,12.72,0,0,1,.89,1.51l.36.7H443L442,44.24a8.5,8.5,0,0,0-.95-1.36m-1.64-1.51h-1.75V39.09h1.74a1.84,1.84,0,0,1,1.07.27.91.91,0,0,1,.39.83,1,1,0,0,1-.36.82,1.87,1.87,0,0,1-1.1.3"/></g></g></g></g></g></svg>