<?xml version="1.0" encoding="utf-8"?>
<!-- Generator: Adobe Illustrator 25.0.1, SVG Export Plug-In . SVG Version: 6.00 Build 0)  -->
<svg version="1.1" id="Capa_1" xmlns="http://www.w3.org/2000/svg" xmlns:xlink="http://www.w3.org/1999/xlink" x="0px" y="0px"
	 viewBox="0 0 24 24" style="enable-background:new 0 0 24 24;" xml:space="preserve">
<style type="text/css">
	.st0{fill:none;}
	.st1{fill:#5FC868;}
</style>
<g>
	<rect class="st0" width="24" height="24"/>
</g>
<g>
	<g>
		<path class="st1" d="M11,8.8v3.7c0,0.4,0.2,0.7,0.5,0.9l3.1,1.9c0.4,0.2,0.8,0.1,1-0.3c0.2-0.4,0.1-0.8-0.3-1l-2.9-1.7V8.7
			c0-0.4-0.3-0.7-0.8-0.7S11,8.3,11,8.8z M21,9.5V4.2c0-0.5-0.5-0.7-0.9-0.3l-1.8,1.8C16.6,3.8,14,2.8,11.2,3C7,3.4,3.5,6.8,3.1,11
			C2.5,16.4,6.7,21,12,21c4.6,0,8.4-3.4,8.9-7.9c0.1-0.6-0.4-1.1-1-1.1c-0.5,0-0.9,0.4-1,0.9c-0.4,3.5-3.4,6.2-7.1,6.1
			c-3.7,0-6.8-3.2-6.9-6.9C4.9,8.2,8.1,5,12,5c1.9,0,3.7,0.8,5,2.1l-2.1,2.1c-0.3,0.3-0.1,0.9,0.3,0.9h5.3C20.8,10,21,9.8,21,9.5z"
			/>
	</g>
</g>
</svg>
