<?xml version="1.0" encoding="utf-8"?>
<!-- Generator: Adobe Illustrator 25.0.1, SVG Export Plug-In . SVG Version: 6.00 Build 0)  -->
<svg version="1.1" id="Capa_1" xmlns="http://www.w3.org/2000/svg" xmlns:xlink="http://www.w3.org/1999/xlink" x="0px" y="0px"
	 viewBox="0 0 48 48" style="enable-background:new 0 0 48 48;" xml:space="preserve">
<style type="text/css">
	.st0{fill:none;}
	.st1{fill:#5FC868;}
</style>
<path class="st0" d="M0,0h48v48H0V0z"/>
<path class="st1" d="M22.4,2.7l-14,6.2C6.9,9.6,6,11,6,12.6V22c0,11.1,7.7,21.5,18,24c10.3-2.5,18-12.9,18-24v-9.4
	c0-1.6-0.9-3-2.4-3.7l-14-6.2C24.6,2.3,23.4,2.3,22.4,2.7z M18.6,32.6l-5.2-5.2c-0.8-0.8-0.8-2,0-2.8s2-0.8,2.8,0l3.8,3.8l11.8-11.8
	c0.8-0.8,2-0.8,2.8,0c0.8,0.8,0.8,2,0,2.8L21.4,32.6C20.6,33.4,19.4,33.4,18.6,32.6z"/>
</svg>
