<?xml version="1.0" encoding="utf-8"?>
<!-- Generator: Adobe Illustrator 25.0.1, SVG Export Plug-In . SVG Version: 6.00 Build 0)  -->
<svg version="1.1" id="Capa_1" xmlns="http://www.w3.org/2000/svg" xmlns:xlink="http://www.w3.org/1999/xlink" x="0px" y="0px"
	 viewBox="0 0 150.2 109.5" style="enable-background:new 0 0 150.2 109.5;" xml:space="preserve">
<style type="text/css">
	.st0{fill:#164194;}
	.st1{fill:url(#SVGID_1_);}
	.st2{fill:url(#SVGID_2_);}
	.st3{fill:url(#SVGID_3_);}
	.st4{fill:url(#SVGID_4_);}
	.st5{fill:url(#SVGID_5_);}
	.st6{fill:#29BDEF;}
</style>
<polygon class="st0" points="93.5,70.3 93.5,1.6 92,2.3 92.1,70.7 "/>
<polygon class="st0" points="73.2,67.2 73.2,4.1 71.8,4.8 71.9,67.7 "/>
<polygon class="st0" points="58,77.7 58,23.9 56.5,24.4 56.6,78.5 "/>
<linearGradient id="SVGID_1_" gradientUnits="userSpaceOnUse" x1="78.0447" y1="81.5881" x2="100.4147" y2="23.2081" gradientTransform="matrix(1 0 0 -1 0 78.5002)">
	<stop  offset="0" style="stop-color:#29BDEF"/>
	<stop  offset="0.39" style="stop-color:#29BBED"/>
	<stop  offset="0.57" style="stop-color:#27B3E8"/>
	<stop  offset="0.7" style="stop-color:#25A7DF"/>
	<stop  offset="0.81" style="stop-color:#2295D2"/>
	<stop  offset="0.91" style="stop-color:#1E7DC1"/>
	<stop  offset="1" style="stop-color:#1961AC"/>
</linearGradient>
<path class="st1" d="M101.5,52.7V7.2L83.1,14v44.4c0,0.3,0,0.5-0.2,0.8c-0.1,0.3-0.5,0.5-0.4,0.5l0.6-0.2L101.5,52.7z"/>
<linearGradient id="SVGID_2_" gradientUnits="userSpaceOnUse" x1="61.2987" y1="68.2396" x2="81.0787" y2="17.7596" gradientTransform="matrix(1 0 0 -1 0 78.5002)">
	<stop  offset="0" style="stop-color:#29BDEF"/>
	<stop  offset="0.39" style="stop-color:#29BBED"/>
	<stop  offset="0.57" style="stop-color:#27B3E8"/>
	<stop  offset="0.7" style="stop-color:#25A7DF"/>
	<stop  offset="0.81" style="stop-color:#2295D2"/>
	<stop  offset="0.91" style="stop-color:#1E7DC1"/>
	<stop  offset="1" style="stop-color:#1961AC"/>
</linearGradient>
<path class="st2" d="M64.7,63.8l16.4-5.9c0.4-0.1,0.6-0.5,0.7-0.9l0,0V17.6l-16.4,6.6v38.8C65.3,62.9,65.2,63.6,64.7,63.8z"/>
<linearGradient id="SVGID_3_" gradientUnits="userSpaceOnUse" x1="50.0299" y1="38.1858" x2="90.8799" y2="38.8958" gradientTransform="matrix(1 0 0 -1 0 78.5002)">
	<stop  offset="0.62" style="stop-color:#1BA7E0;stop-opacity:0"/>
	<stop  offset="0.67" style="stop-color:#169EDA;stop-opacity:0.2"/>
	<stop  offset="0.77" style="stop-color:#0888CB;stop-opacity:0.7"/>
	<stop  offset="0.83" style="stop-color:#007BC2"/>
</linearGradient>
<path class="st3" d="M70.3,61.6c-0.1,0.2-0.2,0.4-0.3,0.6l10.5-4c0.8-0.2,1.3-0.7,1.3-1.3l0,0V17.6L70.4,22L70.3,61.6z"/>
<linearGradient id="SVGID_4_" gradientUnits="userSpaceOnUse" x1="45.7709" y1="56.5105" x2="63.0009" y2="12.9705" gradientTransform="matrix(1 0 0 -1 0 78.5002)">
	<stop  offset="0" style="stop-color:#29BDEF"/>
	<stop  offset="0.39" style="stop-color:#29BBED"/>
	<stop  offset="0.57" style="stop-color:#27B3E8"/>
	<stop  offset="0.7" style="stop-color:#25A7DF"/>
	<stop  offset="0.81" style="stop-color:#2295D2"/>
	<stop  offset="0.91" style="stop-color:#1E7DC1"/>
	<stop  offset="1" style="stop-color:#1961AC"/>
</linearGradient>
<path class="st4" d="M63.1,62.7c0.4-0.2,0.7-0.5,0.7-1l0,0V30.6l-14.6,5.8v31.3L63.1,62.7z"/>
<linearGradient id="SVGID_5_" gradientUnits="userSpaceOnUse" x1="42.24" y1="29.9905" x2="70.03" y2="30.4805" gradientTransform="matrix(1 0 0 -1 0 78.5002)">
	<stop  offset="0.62" style="stop-color:#1BA7E0;stop-opacity:0"/>
	<stop  offset="0.67" style="stop-color:#169EDA;stop-opacity:0.2"/>
	<stop  offset="0.77" style="stop-color:#0888CB;stop-opacity:0.7"/>
	<stop  offset="0.83" style="stop-color:#007BC2"/>
</linearGradient>
<path class="st5" d="M56,65.4c0,0.2-0.1,0.3-0.2,0.4l7.2-3.1c0.4-0.2,0.7-0.5,0.7-1l0,0V30.6l-8.5,3.3L56,65.4z"/>
<polygon class="st0" points="82.2,49.5 65.4,42.1 64.6,41.8 64.1,42.5 48.9,67.9 52.7,66.8 65.4,44.2 82.3,51.1 82.9,51.3 
	83.2,50.7 103.9,4.2 "/>
<path class="st6" d="M8.1,96.1v2.6c-1-0.9-2.2-1.4-3.6-1.5c-1.2,0-1.9,0.6-1.9,1.4s0.3,1.3,2.2,2.4c2.7,1.5,3.8,2.5,3.8,4.6
	s-1.8,3.9-4.5,3.9c-1.5,0-2.9-0.5-4.2-1.3v-2.9c1,1.2,2.5,1.9,4,1.9c1.2,0,2-0.7,2-1.6s-0.3-1.4-2.8-2.8c-1.8-1-3.2-2.1-3.2-4.2
	S1.8,95,4.5,95C5.8,95,7.1,95.4,8.1,96.1z"/>
<path class="st6" d="M16.1,95.3c2.9,0,4.5,1.4,4.5,3.6c0,1.3-0.8,2.5-2.1,3c1.8,0.3,3.2,1.8,3.2,3.7c0,2.9-2.6,3.9-5.4,3.9h-5.2
	V95.3H16.1z M13.9,101.3h1.5c1.8,0,2.6-0.8,2.6-2.1s-0.7-1.9-2.4-1.9h-1.7L13.9,101.3z M15.9,107.4c2.1,0,3.1-0.7,3.1-2.1
	s-1-2.1-3.2-2.1h-2v4.2H15.9z"/>
<path class="st0" d="M36.9,95.2l6.3,14.2h-2.8l-1.6-3.7h-6l-1.6,3.7h-2.8l6.1-14.2H36.9z M33.6,103.6h4.3l-2.2-5.1L33.6,103.6z"/>
<path class="st0" d="M57.8,96.2v2.7c-1.4-0.9-3.1-1.4-4.8-1.4c-2.7-0.2-5.1,1.9-5.2,4.6c0,0.1,0,0.2,0,0.3c0,2.7,2.1,4.9,4.8,4.9
	c0.1,0,0.3,0,0.4,0c1.8,0,3.5-0.5,5-1.6v2.6c-1.6,0.8-3.4,1.3-5.3,1.2c-5.1,0-7.7-3.6-7.7-7.2c0-4.3,3.4-7.3,7.7-7.3
	C54.5,95,56.2,95.4,57.8,96.2z"/>
<path class="st0" d="M74,96.2v2.7c-1.4-0.9-3.1-1.4-4.8-1.4c-2.7-0.1-5,1.9-5.2,4.7c0,0.1,0,0.2,0,0.3c0,2.7,2.1,4.9,4.8,4.9
	c0.1,0,0.3,0,0.4,0c1.8,0,3.5-0.5,5-1.6v2.6c-1.6,0.9-3.4,1.3-5.3,1.2c-5.1,0-7.7-3.6-7.7-7.2c0-4.3,3.4-7.3,7.7-7.3
	C70.7,95,72.4,95.4,74,96.2z"/>
<path class="st0" d="M92.8,102.3c0,3.9-2.8,7.3-7.8,7.3c-4.8,0-7.6-3.4-7.6-7.2c0-3.6,2.5-7.3,7.7-7.3C89.8,95,92.8,98.3,92.8,102.3
	z M80.2,102.3c-0.1,2.6,2,4.7,4.5,4.8c0.1,0,0.2,0,0.3,0c2.8,0,5-1.7,5-4.8c0-2.6-2-4.7-4.6-4.8c-0.1,0-0.2,0-0.3,0
	c-2.5-0.2-4.7,1.7-4.9,4.3C80.2,101.9,80.2,102.1,80.2,102.3L80.2,102.3z"/>
<path class="st0" d="M99.3,95.3v7.9c0,2.8,1.3,4,3.8,4s3.7-1.2,3.7-4v-7.9h2.7v8c0,4-2.2,6.3-6.5,6.3s-6.5-2.2-6.5-6.3v-8L99.3,95.3
	z"/>
<path class="st0" d="M116.4,95.3l8.8,9.9v-9.9h2.7v14.1h-2.4l-8.7-9.9v9.9H114V95.3H116.4z"/>
<path class="st0" d="M143.9,95.3v2.3h-5v11.8h-2.7V97.5h-4.9v-2.3H143.9z"/>
<path class="st0" d="M145.4,97.9c0-0.4,0.1-0.8,0.3-1.2c0.2-0.4,0.5-0.7,0.9-0.9c0.4-0.2,0.8-0.3,1.2-0.3c0.4,0,0.9,0.1,1.2,0.3
	c0.4,0.2,0.7,0.5,0.9,0.9c0.2,0.4,0.3,0.8,0.3,1.2c0,0.4-0.1,0.9-0.3,1.2c-0.2,0.4-0.5,0.7-0.9,0.9c-0.7,0.4-1.7,0.4-2.4,0
	C145.8,99.6,145.3,98.8,145.4,97.9L145.4,97.9z M145.8,97.9c0,0.7,0.4,1.4,1,1.7c0.3,0.2,0.6,0.3,1,0.3c0.4,0,0.7-0.1,1-0.3
	c0.3-0.2,0.5-0.4,0.7-0.7c0.4-0.6,0.4-1.4,0-2c-0.2-0.3-0.4-0.5-0.7-0.7c-0.9-0.5-2.2-0.2-2.7,0.7C145.9,97.2,145.8,97.6,145.8,97.9
	z M148,96.7c0.2,0,0.4,0.1,0.6,0.2c0.1,0.1,0.2,0.3,0.2,0.5c0,0.2-0.1,0.4-0.2,0.5c-0.1,0.1-0.3,0.2-0.5,0.2l0,0
	c0.1,0,0.2,0.1,0.2,0.2c0.1,0.1,0.2,0.3,0.3,0.5l0.3,0.5h-0.6l-0.1-0.2c-0.1-0.2-0.2-0.3-0.3-0.5c-0.1-0.1-0.1-0.2-0.2-0.3
	c-0.1-0.1-0.2-0.1-0.3-0.1h-0.2v1.1h-0.5v-2.6H148z M147.8,97.8c0.1,0,0.3,0,0.4-0.1c0.2-0.1,0.2-0.4,0-0.5c0,0,0,0,0,0
	c-0.1-0.1-0.2-0.1-0.4-0.1h-0.6v0.7H147.8z"/>
<g>
	<defs>
		<rect id="SVGID_6_" x="11.8" width="127.2" height="80.3"/>
	</defs>
	<clipPath id="SVGID_7_">
		<use xlink:href="#SVGID_6_"  style="overflow:visible;"/>
	</clipPath>
	<g style="clip-path:url(#SVGID_7_);enable-background:new    ;">
		
			<image style="overflow:visible;" width="530" height="566" xlink:href="FF25D1D2CA23C77C.png"  transform="matrix(0.24 0 0 0.24 11.84 -33.7499)">
		</image>
	</g>
</g>
</svg>
