<svg xmlns="http://www.w3.org/2000/svg" xmlns:xlink="http://www.w3.org/1999/xlink" viewBox="0 0 162.65 106.98"><defs><style>.cls-1{isolation:isolate;}.cls-2{fill:#29bdef;}.cls-3{fill:#164194;}.cls-4{fill:url(#Degradado_sin_nombre_21);}.cls-5{opacity:0.63;mix-blend-mode:multiply;fill:url(#Degradado_sin_nombre_85);}.cls-6{fill:url(#Degradado_sin_nombre_120);}.cls-7{fill:url(#Degradado_sin_nombre_87);}.cls-8{fill:url(#Degradado_sin_nombre_42);}.cls-9{fill:url(#Degradado_sin_nombre_68);}</style><radialGradient id="Degradado_sin_nombre_21" cx="81.05" cy="38.94" r="28.21" gradientUnits="userSpaceOnUse"><stop offset="0" stop-color="#164194"/><stop offset="0.24" stop-color="#173f8d"/><stop offset="0.6" stop-color="#183978"/><stop offset="1" stop-color="#1a3059"/></radialGradient><radialGradient id="Degradado_sin_nombre_85" cx="75.42" cy="57.63" fx="42.22661884110647" r="33.21" gradientTransform="translate(-17.46 35.87) rotate(-24.57) scale(1 1.01)" gradientUnits="userSpaceOnUse"><stop offset="0.32" stop-color="#422918"/><stop offset="0.56" stop-color="#422918" stop-opacity="0"/></radialGradient><linearGradient id="Degradado_sin_nombre_120" x1="68.97" y1="67.77" x2="98.83" y2="75.26" gradientUnits="userSpaceOnUse"><stop offset="0.13" stop-color="#028fd3"/><stop offset="0.17" stop-color="#0687cd"/><stop offset="0.36" stop-color="#146bb5"/><stop offset="0.47" stop-color="#1961ac"/><stop offset="1" stop-color="#0e4f8e"/></linearGradient><linearGradient id="Degradado_sin_nombre_87" x1="62" y1="43.63" x2="77.54" y2="87.3" gradientUnits="userSpaceOnUse"><stop offset="0.16" stop-color="#0e4f8e"/><stop offset="0.32" stop-color="#1961ac"/><stop offset="0.36" stop-color="#146bb5"/><stop offset="0.43" stop-color="#0687cd"/><stop offset="0.45" stop-color="#028fd3"/><stop offset="1" stop-color="#29bdef"/></linearGradient><linearGradient id="Degradado_sin_nombre_42" x1="89.54" y1="1.87" x2="62.87" y2="31.65" gradientUnits="userSpaceOnUse"><stop offset="0.18" stop-color="#29bdef"/><stop offset="0.23" stop-color="#33c0f0"/><stop offset="0.33" stop-color="#4dc8f2"/><stop offset="0.44" stop-color="#76d5f5"/><stop offset="0.45" stop-color="#71d3f5"/><stop offset="0.51" stop-color="#52caf2"/><stop offset="0.57" stop-color="#3bc3f0"/><stop offset="0.62" stop-color="#2ebeef"/><stop offset="0.67" stop-color="#29bdef"/><stop offset="0.78" stop-color="#21b3e9"/><stop offset="0.96" stop-color="#0b99da"/><stop offset="1" stop-color="#0693d6"/></linearGradient><linearGradient id="Degradado_sin_nombre_68" x1="63.64" y1="47.86" x2="66.02" y2="47.86" gradientUnits="userSpaceOnUse"><stop offset="0" stop-color="#0093d6"/><stop offset="0.08" stop-color="#089bdb"/><stop offset="0.3" stop-color="#1aaee6"/><stop offset="0.53" stop-color="#25b9ed"/><stop offset="0.78" stop-color="#29bdef"/><stop offset="0.94" stop-color="#60cef3"/></linearGradient></defs><g class="cls-1"><g id="Capa_2" data-name="Capa 2"><g id="Capa_1-2" data-name="Capa 1"><path class="cls-2" d="M8,93.76v2.59A5.35,5.35,0,0,0,4.5,94.86c-1.2,0-1.85.59-1.85,1.43s.26,1.28,2.2,2.34c2.62,1.44,3.74,2.44,3.74,4.54S6.8,107,4.19,107a7.85,7.85,0,0,1-4.11-1.22V103A5.5,5.5,0,0,0,4,104.82c1.2,0,1.93-.69,1.93-1.57s-.26-1.38-2.78-2.75C1.32,99.48,0,98.4,0,96.37s1.69-3.65,4.38-3.65A6.83,6.83,0,0,1,8,93.76Z"/><path class="cls-2" d="M15.88,92.91c2.87,0,4.48,1.42,4.48,3.5a3.08,3.08,0,0,1-2.06,3A3.71,3.71,0,0,1,21.48,103c0,2.89-2.55,3.82-5.31,3.82H11V92.91Zm-2.22,5.88h1.45c1.81,0,2.6-.81,2.6-2s-.71-1.92-2.36-1.92H13.66Zm2,6.07c2.07,0,3.09-.65,3.09-2.08s-.94-2.07-3.15-2.07H13.66v4.15Z"/><path class="cls-3" d="M32.05,92.91v13.88H29.36V92.91Z"/><path class="cls-3" d="M38.21,92.91l8.61,9.79V92.91h2.63v13.88H47.08l-8.55-9.73v9.73H35.91V92.91Z"/><path class="cls-3" d="M56,92.91l8.61,9.79V92.91h2.63v13.88H64.91l-8.55-9.73v9.73H53.73V92.91Z"/><path class="cls-3" d="M85.67,99.83c0,3.79-2.77,7.15-7.66,7.15-4.68,0-7.49-3.32-7.49-7.11,0-3.52,2.46-7.15,7.57-7.15C82.67,92.72,85.67,95.88,85.67,99.83Zm-12.4,0A4.6,4.6,0,0,0,78,104.55c2.73,0,4.89-1.65,4.89-4.72a4.62,4.62,0,0,0-4.81-4.68A4.52,4.52,0,0,0,73.27,99.87Z"/><path class="cls-3" d="M89.55,92.91l3.87,9.2,3.82-9.2H100l-6,14H92.83l-6-14Z"/><path class="cls-3" d="M108,92.85l6.17,13.94h-2.75l-1.61-3.68h-6l-1.54,3.68H99.56l6-13.94Zm-3.28,8.26h4.21l-2.16-5Z"/><path class="cls-3" d="M126.14,92.91v2.28h-4.91v11.6h-2.68V95.19h-4.87V92.91Z"/><path class="cls-3" d="M143,99.83c0,3.79-2.77,7.15-7.66,7.15-4.68,0-7.49-3.32-7.49-7.11,0-3.52,2.46-7.15,7.57-7.15C140,92.72,143,95.88,143,99.83Zm-12.4,0a4.59,4.59,0,0,0,4.76,4.68c2.73,0,4.89-1.65,4.89-4.72a4.62,4.62,0,0,0-4.81-4.68A4.52,4.52,0,0,0,130.55,99.87Z"/><path class="cls-3" d="M151.34,92.91c3,0,4.56,1.79,4.56,4a3.51,3.51,0,0,1-2.3,3.44c.86.51,1.31,1,2.43,2.83l2.13,3.6h-3l-1.91-3.3c-1.24-2.15-2.06-2.54-3.14-2.54h-.77v5.84h-2.69V92.91Zm-2,6.06h1.36c1.41,0,2.51-.38,2.51-2,0-1.24-.76-2-2.24-2h-1.63Z"/><path class="cls-3" d="M157.8,95.79a2.43,2.43,0,0,1,.32-1.21,2.35,2.35,0,0,1,.89-.88,2.38,2.38,0,0,1,1.22-.33,2.44,2.44,0,0,1,1.22.32,2.35,2.35,0,0,1,.88.89,2.46,2.46,0,0,1,.32,1.21,2.35,2.35,0,0,1-.33,1.22,2.28,2.28,0,0,1-.89.88,2.42,2.42,0,0,1-2.42,0,2.38,2.38,0,0,1-1.21-2.09Zm.45,0a2,2,0,0,0,1,1.71,1.88,1.88,0,0,0,1,.27,2,2,0,0,0,1-.27,1.94,1.94,0,0,0,1-1.71,1.91,1.91,0,0,0-.27-1,1.85,1.85,0,0,0-.72-.72,2,2,0,0,0-2.71.72A2,2,0,0,0,158.25,95.79Zm2.21-1.28a.87.87,0,0,1,.58.2.67.67,0,0,1,.22.51.72.72,0,0,1-.71.73v0a.63.63,0,0,1,.25.16,2,2,0,0,1,.32.46l.31.51h-.59l-.12-.23a3.69,3.69,0,0,0-.29-.51,1.27,1.27,0,0,0-.24-.26.5.5,0,0,0-.29-.07h-.21V97.1h-.48V94.51Zm-.19,1.13a.59.59,0,0,0,.36-.1.36.36,0,0,0,.13-.28.32.32,0,0,0-.14-.27.58.58,0,0,0-.35-.09h-.58v.74Z"/><path class="cls-4" d="M105.05,12.83a30.2,30.2,0,0,1-8.17,27.41c-2.55,2.55-8.12,6.07-8.53,6a.59.59,0,0,1-.47-.53c0-.25.15-.41.47-.6a10.28,10.28,0,0,0,4.4-5.68A10,10,0,1,0,78,45.08a2.25,2.25,0,0,1,1.11,2.06,1.84,1.84,0,0,1-.07.42,2.07,2.07,0,0,1-2.2,1.82,37.08,37.08,0,0,1-23.39-9.56,33.73,33.73,0,0,1-2.59-2.93c1.4,8.18,7.19,14.77,12.31,19.9,1.66,1.66,3,3.59,3,5.94v2.32H95.43V62.73a7.28,7.28,0,0,1,3-5.9,31.41,31.41,0,0,0,6.66-44Z"/><path class="cls-5" d="M88.33,65l7.47,0C96,49,76.75,51.33,66.87,47.63a31.35,31.35,0,0,1-13-7.83,33.73,33.73,0,0,1-2.59-2.93,31.05,31.05,0,0,0,12.3,19.88,7.38,7.38,0,0,1,3,6V65Z"/><path class="cls-6" d="M88.06,75.75H71a2.75,2.75,0,0,1-2.35-1.36L64.1,66.75H95l-4.57,7.64A2.75,2.75,0,0,1,88.06,75.75Z"/><path class="cls-7" d="M63.15,64.8c0,.09,0,.17,0,.26H74.52a25.61,25.61,0,0,1-.65-3.39C73,55,72,53.27,70,50.17A26.84,26.84,0,0,0,65.62,45S61,50.62,58.54,52.11c2.65,2.94,4.54,6.46,4.54,9.56C63.08,61.67,63.15,63.72,63.15,64.8Z"/><path class="cls-8" d="M63.44,40.72a30.86,30.86,0,0,1,41.49-28.93,30.82,30.82,0,0,0-55.06,19c0,8.3,4.22,18.63,9.19,22.85L66,51S63.44,50.21,63.44,40.72Z"/><path class="cls-9" d="M66,51s-1.89-.65-2.38-6.17l2,.26S65.41,49.38,66,51Z"/></g></g></g></svg>