<svg xmlns="http://www.w3.org/2000/svg" xmlns:xlink="http://www.w3.org/1999/xlink" viewBox="0 0 202.88 124.48"><defs><style>.cls-1{fill:#29bdef;}.cls-2{fill:#164194;}.cls-3{fill:url(#Degradado_sin_nombre_48);}.cls-4{fill:url(#Degradado_sin_nombre_41);}.cls-5{opacity:0.5;fill:url(#Degradado_sin_nombre_41-2);}.cls-6{opacity:0.31;fill:url(#Degradado_sin_nombre_50);}</style><linearGradient id="Degradado_sin_nombre_48" x1="88.24" y1="29.6" x2="132.35" y2="29.6" gradientUnits="userSpaceOnUse"><stop offset="0" stop-color="#1a2e55"/><stop offset="1" stop-color="#164194"/></linearGradient><linearGradient id="Degradado_sin_nombre_41" x1="79.56" y1="39.19" x2="123.66" y2="39.19" gradientUnits="userSpaceOnUse"><stop offset="0" stop-color="#1961ac"/><stop offset="0.09" stop-color="#1e7dc1"/><stop offset="0.19" stop-color="#2295d2"/><stop offset="0.3" stop-color="#25a7df"/><stop offset="0.43" stop-color="#27b3e8"/><stop offset="0.61" stop-color="#29bbed"/><stop offset="1" stop-color="#29bdef"/></linearGradient><linearGradient id="Degradado_sin_nombre_41-2" x1="70.64" y1="47.41" x2="115.39" y2="47.41" xlink:href="#Degradado_sin_nombre_41"/><linearGradient id="Degradado_sin_nombre_50" x1="100.97" y1="40.96" x2="132.87" y2="25.46" gradientUnits="userSpaceOnUse"><stop offset="0" stop-color="#1a2e55"/><stop offset="1" stop-color="#164194" stop-opacity="0"/></linearGradient></defs><g id="Capa_2" data-name="Capa 2"><g id="Capa_1-2" data-name="Capa 1"><path class="cls-1" d="M7.91,94.65v2.54a5.32,5.32,0,0,0-3.48-1.46c-1.18,0-1.82.58-1.82,1.4s.26,1.27,2.17,2.31c2.58,1.43,3.69,2.41,3.69,4.48s-1.77,3.75-4.34,3.75a7.64,7.64,0,0,1-4-1.21V103.7a5.42,5.42,0,0,0,3.83,1.84c1.19,0,1.91-.68,1.91-1.54s-.26-1.37-2.75-2.71C1.3,100.28,0,99.22,0,97.21s1.67-3.59,4.31-3.59A6.68,6.68,0,0,1,7.91,94.65Z"/><path class="cls-1" d="M15.65,93.8c2.83,0,4.41,1.41,4.41,3.45a3,3,0,0,1-2,2.91,3.65,3.65,0,0,1,3.13,3.56c0,2.84-2.51,3.77-5.24,3.77h-5.1V93.8Zm-2.19,5.8h1.43c1.78,0,2.57-.8,2.57-2s-.71-1.89-2.33-1.89H13.46Zm2,6c2.05,0,3.05-.64,3.05-2s-.92-2-3.11-2H13.46v4.09Z"/><path class="cls-2" d="M31.6,93.8v11.42h6.18v2.27H28.93V93.8Z"/><path class="cls-2" d="M49.3,93.8v2.07H43.44V99.5h5.64v2.07H43.44v3.83h6v2.09H40.79V93.8Z"/><path class="cls-2" d="M60.34,93.74l6.08,13.75H63.71l-1.58-3.63H56.27l-1.53,3.63H52L58,93.74Zm-3.23,8.15h4.15l-2.12-5Z"/><path class="cls-2" d="M71.36,93.8l8.49,9.65V93.8h2.58v13.69H80.11L71.68,97.9v9.59H69.09V93.8Z"/><path class="cls-2" d="M99.11,93.74l6.08,13.75h-2.71l-1.58-3.63H95l-1.53,3.63H90.8l5.92-13.75Zm-3.23,8.15H100l-2.12-5Z"/><path class="cls-2" d="M119.12,94.71v2.58a9,9,0,0,0-4.66-1.4,4.78,4.78,0,0,0-5.07,4.8,4.69,4.69,0,0,0,5,4.71,8.56,8.56,0,0,0,4.8-1.5v2.56a10.44,10.44,0,0,1-5.1,1.21c-4.91,0-7.46-3.47-7.46-7,0-4.18,3.29-7,7.5-7A12.49,12.49,0,0,1,119.12,94.71Z"/><path class="cls-2" d="M129.82,93.74l6.08,13.75h-2.71l-1.59-3.63h-5.86l-1.52,3.63h-2.71l5.92-13.75Zm-3.24,8.15h4.16l-2.13-5Z"/><path class="cls-2" d="M144.64,93.8c4.81,0,7.54,2.85,7.54,6.74,0,4.26-2.83,6.95-7.46,6.95h-5.56V93.8Zm-.12,11.58c3.21,0,4.95-1.73,4.95-4.77,0-2.89-1.72-4.74-5.15-4.74h-2.51v9.51Z"/><path class="cls-2" d="M164.24,93.8v2.07h-5.85V99.5H164v2.07h-5.63v3.83h6v2.09h-8.69V93.8Z"/><path class="cls-2" d="M170.55,93.8,175,99.26l4.42-5.46h2.42v13.69h-2.64V97.72l-4,5h-.36l-4.07-5v9.77H168.1V93.8Z"/><path class="cls-2" d="M187.48,93.8l3.5,4.6,3.53-4.6h3l-5.14,6.76v6.93h-2.67v-6.91l-5.17-6.78Z"/><path class="cls-2" d="M198.06,96.46a2.39,2.39,0,0,1,.31-1.2,2.43,2.43,0,0,1,3.32-.88,2.3,2.3,0,0,1,.87.88,2.45,2.45,0,0,1,.32,1.2,2.35,2.35,0,0,1-.33,1.22,2.32,2.32,0,0,1-.88.88,2.39,2.39,0,0,1-1.2.31,2.34,2.34,0,0,1-1.21-.33,2.31,2.31,0,0,1-1.2-2.08Zm.44,0a2,2,0,0,0,1,1.71,2,2,0,0,0,2.7-.72,1.93,1.93,0,0,0,.26-1,2,2,0,0,0-.26-1,2,2,0,0,0-1.72-1,2,2,0,0,0-1,.26,2,2,0,0,0-.72.73A2,2,0,0,0,198.5,96.46Zm2.2-1.27a.82.82,0,0,1,.57.2.65.65,0,0,1,.23.51.7.7,0,0,1-.2.5.76.76,0,0,1-.51.23h0a.76.76,0,0,1,.25.16,2.75,2.75,0,0,1,.32.46l.3.51h-.58l-.12-.23a3.69,3.69,0,0,0-.29-.51.88.88,0,0,0-.24-.26.47.47,0,0,0-.28-.07h-.22v1.07h-.47V95.19Zm-.19,1.12a.53.53,0,0,0,.36-.1.32.32,0,0,0,.13-.27.31.31,0,0,0-.14-.27.58.58,0,0,0-.35-.09h-.58v.73Z"/><path class="cls-3" d="M88.24,43.23l43.6,16,.51-47.77L98.57.39A7.9,7.9,0,0,0,88.24,7.64Z"/><path class="cls-4" d="M79.56,52.81l43.59,16L123.66,21,89.88,10a7.89,7.89,0,0,0-10.32,7.24Z"/><path class="cls-5" d="M70.64,61l44.24,16,.51-47.77-33.78-11c-5-1.63-10.78,2-11,7.25Z"/><path class="cls-6" d="M90.11,10a7.89,7.89,0,0,0-10.33,7.24l0,.63a7.68,7.68,0,0,1,1.74.35l33.78,11.05-.39,36.52,8.49,3L123.89,21Z"/><path class="cls-2" d="M34.18,114.25h1v3a2.26,2.26,0,0,1,1.38-.47,2,2,0,0,1,1.57.72,2.76,2.76,0,0,1,.61,1.86,2.59,2.59,0,0,1-.73,1.94,2.63,2.63,0,0,1-1.94.72,6.29,6.29,0,0,1-1-.1,3.24,3.24,0,0,1-.86-.27Zm1,3.93v2.73a3.39,3.39,0,0,0,1,.16,1.39,1.39,0,0,0,1.08-.47,1.77,1.77,0,0,0,.42-1.22,1.86,1.86,0,0,0-.39-1.22,1.27,1.27,0,0,0-1-.47A1.74,1.74,0,0,0,35.18,118.18Z"/><path class="cls-2" d="M44.14,119.48H40.59a1.67,1.67,0,0,0,.49,1.15,1.62,1.62,0,0,0,1.15.43,3,3,0,0,0,1.82-.62v1a3.45,3.45,0,0,1-.91.44,3.7,3.7,0,0,1-1.06.13,2.37,2.37,0,0,1-1.35-.35,2.58,2.58,0,0,1-.83-.93,2.92,2.92,0,0,1-.31-1.35,2.65,2.65,0,0,1,.66-1.87,2.17,2.17,0,0,1,1.69-.72,2,2,0,0,1,1.6.7,2.79,2.79,0,0,1,.6,1.88Zm-3.52-.6h2.53a1.35,1.35,0,0,0-.35-.92,1.14,1.14,0,0,0-.86-.33,1.22,1.22,0,0,0-.88.33A1.51,1.51,0,0,0,40.62,118.88Z"/><path class="cls-2" d="M44.51,117.67l1.88-1.85v1.05H48v.9h-1.6v2.47c0,.57.24.86.72.86a2.2,2.2,0,0,0,1.13-.36v.94A2.55,2.55,0,0,1,47,122a1.64,1.64,0,0,1-1.14-.4,1,1,0,0,1-.24-.27,1.74,1.74,0,0,1-.16-.4,4.62,4.62,0,0,1-.06-.93v-2.23h-.88Z"/><path class="cls-2" d="M48.25,117.67l1.88-1.85v1.05h1.6v.9h-1.6v2.47c0,.57.24.86.72.86a2.2,2.2,0,0,0,1.13-.36v.94a2.55,2.55,0,0,1-1.25.32,1.64,1.64,0,0,1-1.14-.4,1,1,0,0,1-.24-.27,1.74,1.74,0,0,1-.16-.4,4.62,4.62,0,0,1-.06-.93v-2.23h-.88Z"/><path class="cls-2" d="M57,119.48H53.45a1.67,1.67,0,0,0,.49,1.15,1.62,1.62,0,0,0,1.15.43,3,3,0,0,0,1.82-.62v1a3.45,3.45,0,0,1-.91.44,3.7,3.7,0,0,1-1.06.13,2.37,2.37,0,0,1-1.35-.35,2.47,2.47,0,0,1-.82-.93,2.8,2.8,0,0,1-.31-1.35,2.65,2.65,0,0,1,.65-1.87,2.17,2.17,0,0,1,1.69-.72,2,2,0,0,1,1.6.7,2.79,2.79,0,0,1,.6,1.88Zm-3.52-.6H56a1.35,1.35,0,0,0-.35-.92,1.14,1.14,0,0,0-.86-.33,1.22,1.22,0,0,0-.88.33A1.51,1.51,0,0,0,53.48,118.88Z"/><path class="cls-2" d="M59.15,116.87V118l.06-.08q.72-1.17,1.44-1.17a1.78,1.78,0,0,1,1.18.57l-.52.88a1.49,1.49,0,0,0-1-.5,1,1,0,0,0-.83.46,1.72,1.72,0,0,0-.36,1.09v2.64h-1v-5Z"/><path class="cls-2" d="M65.58,124.48v-7.61h1.75a3,3,0,0,1,2.09.67,2.37,2.37,0,0,1,.75,1.87,2.62,2.62,0,0,1-.7,1.86,2.38,2.38,0,0,1-1.8.73,3.26,3.26,0,0,1-1.07-.21v2.69Zm1.73-6.68H66.6v3.1a2.08,2.08,0,0,0,1,.24,1.46,1.46,0,0,0,1.14-.49,1.77,1.77,0,0,0,.45-1.26,1.81,1.81,0,0,0-.21-.87,1.28,1.28,0,0,0-.58-.55A2.62,2.62,0,0,0,67.31,117.8Z"/><path class="cls-2" d="M75.57,119.48H72a1.62,1.62,0,0,0,.48,1.15,1.64,1.64,0,0,0,1.16.43,3,3,0,0,0,1.82-.62v1a3.51,3.51,0,0,1-.92.44,3.7,3.7,0,0,1-1.06.13,2.42,2.42,0,0,1-1.35-.35,2.56,2.56,0,0,1-.82-.93,2.8,2.8,0,0,1-.31-1.35,2.69,2.69,0,0,1,.65-1.87,2.19,2.19,0,0,1,1.7-.72,2,2,0,0,1,1.6.7,2.79,2.79,0,0,1,.6,1.88Zm-3.53-.6h2.54a1.41,1.41,0,0,0-.36-.92,1.13,1.13,0,0,0-.85-.33,1.2,1.2,0,0,0-.88.33A1.57,1.57,0,0,0,72,118.88Z"/><path class="cls-2" d="M79.06,116.86a2.6,2.6,0,0,1,1.91.74,2.5,2.5,0,0,1,.77,1.87,2.37,2.37,0,0,1-.78,1.81A2.72,2.72,0,0,1,79,122a2.63,2.63,0,0,1-1.9-.73,2.6,2.6,0,0,1,0-3.68A2.66,2.66,0,0,1,79.06,116.86Zm-.06.9a1.54,1.54,0,0,0-1.17.47,1.63,1.63,0,0,0-.47,1.2,1.57,1.57,0,0,0,.48,1.18,1.79,1.79,0,0,0,2.41,0,1.58,1.58,0,0,0,.47-1.18,1.56,1.56,0,0,0-.49-1.19A1.66,1.66,0,0,0,79,117.76Z"/><path class="cls-2" d="M82.78,124.48v-7.61h1.74a3,3,0,0,1,2.09.67,2.37,2.37,0,0,1,.75,1.87,2.57,2.57,0,0,1-.7,1.86,2.37,2.37,0,0,1-1.79.73,3.16,3.16,0,0,1-1.07-.21v2.69Zm1.72-6.68h-.7v3.1a2,2,0,0,0,1,.24,1.48,1.48,0,0,0,1.15-.49,2,2,0,0,0,.23-2.13,1.31,1.31,0,0,0-.57-.55A2.67,2.67,0,0,0,84.5,117.8Z"/><path class="cls-2" d="M88.48,114.25h1v7.66h-1Z"/><path class="cls-2" d="M95.22,119.48H91.67a1.67,1.67,0,0,0,.49,1.15,1.62,1.62,0,0,0,1.15.43,3,3,0,0,0,1.82-.62v1a3.45,3.45,0,0,1-.91.44,3.75,3.75,0,0,1-1.06.13,2.37,2.37,0,0,1-1.35-.35,2.58,2.58,0,0,1-.83-.93,2.92,2.92,0,0,1-.31-1.35,2.65,2.65,0,0,1,.66-1.87,2.17,2.17,0,0,1,1.69-.72,2,2,0,0,1,1.6.7,2.79,2.79,0,0,1,.6,1.88Zm-3.53-.6h2.54a1.35,1.35,0,0,0-.35-.92,1.14,1.14,0,0,0-.86-.33,1.22,1.22,0,0,0-.88.33A1.57,1.57,0,0,0,91.69,118.88Z"/><path class="cls-2" d="M96.37,123.24V123a1.42,1.42,0,0,0,.34-.48,1.79,1.79,0,0,0,.12-.65.7.7,0,0,1-.58-.72.72.72,0,0,1,.2-.51.63.63,0,0,1,.47-.22.65.65,0,0,1,.55.3,1.29,1.29,0,0,1,.21.76,1.7,1.7,0,0,1-.35,1.07A1.9,1.9,0,0,1,96.37,123.24Z"/><path class="cls-2" d="M100.94,114.25h1v3a2.26,2.26,0,0,1,1.38-.47,2,2,0,0,1,1.57.72,2.76,2.76,0,0,1,.61,1.86,2.59,2.59,0,0,1-.73,1.94,2.63,2.63,0,0,1-1.94.72,6.29,6.29,0,0,1-1-.1,3.24,3.24,0,0,1-.86-.27Zm1,3.93v2.73a3.39,3.39,0,0,0,1,.16,1.39,1.39,0,0,0,1.08-.47,1.77,1.77,0,0,0,.42-1.22,1.86,1.86,0,0,0-.39-1.22,1.29,1.29,0,0,0-1-.47A1.74,1.74,0,0,0,101.94,118.18Z"/><path class="cls-2" d="M110.9,119.48h-3.55a1.67,1.67,0,0,0,.49,1.15,1.62,1.62,0,0,0,1.15.43,3,3,0,0,0,1.82-.62v1a3.45,3.45,0,0,1-.91.44,3.75,3.75,0,0,1-1.06.13,2.37,2.37,0,0,1-1.35-.35,2.58,2.58,0,0,1-.83-.93,2.92,2.92,0,0,1-.31-1.35,2.65,2.65,0,0,1,.66-1.87,2.17,2.17,0,0,1,1.69-.72,2,2,0,0,1,1.6.7,2.79,2.79,0,0,1,.6,1.88Zm-3.53-.6h2.54a1.35,1.35,0,0,0-.35-.92,1.15,1.15,0,0,0-.86-.33,1.22,1.22,0,0,0-.88.33A1.57,1.57,0,0,0,107.37,118.88Z"/><path class="cls-2" d="M111.27,117.67l1.88-1.85v1.05h1.59v.9h-1.59v2.47c0,.57.24.86.72.86a2.2,2.2,0,0,0,1.13-.36v.94a2.55,2.55,0,0,1-1.25.32,1.64,1.64,0,0,1-1.14-.4,1,1,0,0,1-.24-.27,1.74,1.74,0,0,1-.16-.4,4.62,4.62,0,0,1-.06-.93v-2.23h-.88Z"/><path class="cls-2" d="M115,117.67l1.88-1.85v1.05h1.59v.9h-1.59v2.47c0,.57.24.86.72.86a2.2,2.2,0,0,0,1.13-.36v.94a2.55,2.55,0,0,1-1.25.32,1.64,1.64,0,0,1-1.14-.4,1,1,0,0,1-.24-.27,1.74,1.74,0,0,1-.16-.4,4.62,4.62,0,0,1-.06-.93v-2.23H115Z"/><path class="cls-2" d="M123.76,119.48h-3.55a1.67,1.67,0,0,0,.49,1.15,1.62,1.62,0,0,0,1.15.43,3,3,0,0,0,1.82-.62v1a3.45,3.45,0,0,1-.91.44,3.75,3.75,0,0,1-1.06.13,2.37,2.37,0,0,1-1.35-.35,2.58,2.58,0,0,1-.83-.93,2.92,2.92,0,0,1-.31-1.35,2.65,2.65,0,0,1,.66-1.87,2.17,2.17,0,0,1,1.69-.72,2,2,0,0,1,1.6.7,2.79,2.79,0,0,1,.6,1.88Zm-3.53-.6h2.54a1.35,1.35,0,0,0-.35-.92,1.14,1.14,0,0,0-.86-.33,1.22,1.22,0,0,0-.88.33A1.57,1.57,0,0,0,120.23,118.88Z"/><path class="cls-2" d="M125.91,116.87V118l0-.08c.49-.78,1-1.17,1.45-1.17a1.78,1.78,0,0,1,1.18.57l-.52.88a1.49,1.49,0,0,0-1-.5,1.07,1.07,0,0,0-.84.46,1.78,1.78,0,0,0-.35,1.09v2.64h-1v-5Z"/><path class="cls-2" d="M132.37,114.25h1v3a2.29,2.29,0,0,1,1.39-.47,1.93,1.93,0,0,1,1.56.72,2.76,2.76,0,0,1,.61,1.86,2.63,2.63,0,0,1-.72,1.94,2.67,2.67,0,0,1-1.95.72,6.39,6.39,0,0,1-1-.1,3.15,3.15,0,0,1-.85-.27Zm1,3.93v2.73a3.39,3.39,0,0,0,1,.16,1.39,1.39,0,0,0,1.08-.47,1.77,1.77,0,0,0,.42-1.22,1.86,1.86,0,0,0-.39-1.22,1.27,1.27,0,0,0-1-.47A1.78,1.78,0,0,0,133.36,118.18Z"/><path class="cls-2" d="M141.24,121.91v-.65a2.27,2.27,0,0,1-.73.55,1.85,1.85,0,0,1-.81.19,1.69,1.69,0,0,1-.88-.24,1.53,1.53,0,0,1-.61-.65,3.14,3.14,0,0,1-.21-1.35v-2.89h1v2.87a2,2,0,0,0,.23,1.11.92.92,0,0,0,.8.32,1.47,1.47,0,0,0,1.21-.7v-3.6h1v5Z"/><path class="cls-2" d="M143.39,121.55v-1.07a5.75,5.75,0,0,0,.87.48,2,2,0,0,0,.74.18,1,1,0,0,0,.54-.15.45.45,0,0,0,.22-.37.53.53,0,0,0-.14-.37,4.65,4.65,0,0,0-.63-.42,4.27,4.27,0,0,1-1.26-.91,1.35,1.35,0,0,1-.3-.84,1.16,1.16,0,0,1,.45-.94,1.75,1.75,0,0,1,1.16-.37,3.28,3.28,0,0,1,1.52.41v1a3,3,0,0,0-1.45-.54.84.84,0,0,0-.47.13.38.38,0,0,0-.18.33.51.51,0,0,0,.16.33,2.75,2.75,0,0,0,.57.38l.36.21c.84.47,1.26,1,1.26,1.58a1.25,1.25,0,0,1-.48,1,1.89,1.89,0,0,1-1.25.4,2.78,2.78,0,0,1-.8-.1A5.15,5.15,0,0,1,143.39,121.55Z"/><path class="cls-2" d="M148.48,114.74a.61.61,0,0,1,.42.17.58.58,0,0,1,0,.84.57.57,0,0,1-.42.17.58.58,0,0,1-.41-.17.59.59,0,0,1,0-.83A.55.55,0,0,1,148.48,114.74Zm-.5,2.13h1v5h-1Z"/><path class="cls-2" d="M151.42,116.87v.64a2,2,0,0,1,1.52-.74,1.69,1.69,0,0,1,.88.24,1.6,1.6,0,0,1,.62.67,3.21,3.21,0,0,1,.21,1.35v2.88h-1V119a1.94,1.94,0,0,0-.24-1.11.89.89,0,0,0-.79-.33,1.45,1.45,0,0,0-1.2.71v3.6h-1v-5Z"/><path class="cls-2" d="M160.34,119.48h-3.55a1.67,1.67,0,0,0,.49,1.15,1.62,1.62,0,0,0,1.15.43,3,3,0,0,0,1.82-.62v1a3.45,3.45,0,0,1-.91.44,3.75,3.75,0,0,1-1.06.13,2.37,2.37,0,0,1-1.35-.35,2.58,2.58,0,0,1-.83-.93,2.92,2.92,0,0,1-.31-1.35,2.65,2.65,0,0,1,.66-1.87,2.17,2.17,0,0,1,1.69-.72,2,2,0,0,1,1.6.7,2.79,2.79,0,0,1,.6,1.88Zm-3.53-.6h2.54A1.35,1.35,0,0,0,159,118a1.15,1.15,0,0,0-.86-.33,1.22,1.22,0,0,0-.88.33A1.57,1.57,0,0,0,156.81,118.88Z"/><path class="cls-2" d="M161.17,121.55v-1.07a5.75,5.75,0,0,0,.87.48,2,2,0,0,0,.74.18,1,1,0,0,0,.54-.15.45.45,0,0,0,.22-.37.53.53,0,0,0-.14-.37,4.65,4.65,0,0,0-.63-.42,4.27,4.27,0,0,1-1.26-.91,1.35,1.35,0,0,1-.3-.84,1.16,1.16,0,0,1,.45-.94,1.75,1.75,0,0,1,1.16-.37,3.28,3.28,0,0,1,1.52.41v1a3,3,0,0,0-1.45-.54.84.84,0,0,0-.47.13.38.38,0,0,0-.18.33.51.51,0,0,0,.16.33,2.75,2.75,0,0,0,.57.38l.36.21c.84.47,1.26,1,1.26,1.58a1.23,1.23,0,0,1-.49,1,1.85,1.85,0,0,1-1.24.4,2.78,2.78,0,0,1-.8-.1A5.15,5.15,0,0,1,161.17,121.55Z"/><path class="cls-2" d="M165.5,121.55v-1.07a5.21,5.21,0,0,0,.86.48,2,2,0,0,0,.74.18,1,1,0,0,0,.54-.15.45.45,0,0,0,.22-.37.49.49,0,0,0-.14-.37,4.65,4.65,0,0,0-.63-.42,4.41,4.41,0,0,1-1.26-.91,1.35,1.35,0,0,1-.3-.84,1.16,1.16,0,0,1,.45-.94,1.76,1.76,0,0,1,1.17-.37,3.24,3.24,0,0,1,1.51.41v1a3,3,0,0,0-1.45-.54.84.84,0,0,0-.47.13.38.38,0,0,0-.18.33.48.48,0,0,0,.17.33,2.38,2.38,0,0,0,.56.38l.36.21c.84.47,1.26,1,1.26,1.58a1.25,1.25,0,0,1-.48,1,1.89,1.89,0,0,1-1.25.4,2.78,2.78,0,0,1-.8-.1A4.81,4.81,0,0,1,165.5,121.55Z"/></g></g></svg>