<svg xmlns="http://www.w3.org/2000/svg" xmlns:xlink="http://www.w3.org/1999/xlink" viewBox="0 0 85.93 107.83"><defs><style>.cls-1{isolation:isolate;}.cls-2{fill:#29bdef;}.cls-3{fill:#164194;}.cls-4{fill:url(#Degradado_sin_nombre_62);}.cls-5{fill:#1d1d1b;opacity:0.32;mix-blend-mode:multiply;}.cls-6{fill:url(#Degradado_sin_nombre_84);}.cls-7{fill:#fff;opacity:0.21;}.cls-8{fill:url(#Degradado_sin_nombre_89);}</style><linearGradient id="Degradado_sin_nombre_62" x1="96.5" y1="36.7" x2="45.49" y2="23.94" gradientTransform="translate(-7.25 13.82) rotate(-0.32)" gradientUnits="userSpaceOnUse"><stop offset="0.27" stop-color="#0093d6"/><stop offset="0.32" stop-color="#0687cc"/><stop offset="0.49" stop-color="#146bb5"/><stop offset="0.58" stop-color="#1961ac"/><stop offset="0.96" stop-color="#003869"/></linearGradient><linearGradient id="Degradado_sin_nombre_84" x1="9.82" y1="16.14" x2="61.85" y2="43.63" gradientTransform="translate(-7.25 13.82) rotate(-0.32)" gradientUnits="userSpaceOnUse"><stop offset="0.03" stop-color="#29bdef"/><stop offset="0.26" stop-color="#23b4e9"/><stop offset="0.48" stop-color="#1ba7e0"/><stop offset="1" stop-color="#007bc2"/></linearGradient><linearGradient id="Degradado_sin_nombre_89" x1="769.9" y1="1838.32" x2="791.86" y2="1838.32" gradientTransform="translate(257.59 -1946.04) rotate(28.35)" gradientUnits="userSpaceOnUse"><stop offset="0.03" stop-color="#29bdef"/><stop offset="0.53" stop-color="#23b4e9"/><stop offset="1" stop-color="#1ba7e0"/></linearGradient></defs><g class="cls-1"><g id="Capa_2" data-name="Capa 2"><g id="Capa_1-2" data-name="Capa 1"><path class="cls-2" d="M8.25,94.24V96.9a5.55,5.55,0,0,0-3.62-1.53c-1.24,0-1.91.61-1.91,1.47S3,98.16,5,99.24c2.7,1.49,3.86,2.52,3.86,4.67S7,107.83,4.31,107.83a8,8,0,0,1-4.23-1.26v-2.89a5.65,5.65,0,0,0,4,1.93c1.24,0,2-.71,2-1.61s-.27-1.43-2.87-2.83C1.36,100.12,0,99,0,96.92s1.74-3.75,4.5-3.75A7,7,0,0,1,8.25,94.24Z"/><path class="cls-2" d="M16.33,93.36c3,0,4.61,1.47,4.61,3.6a3.18,3.18,0,0,1-2.12,3c2.14.52,3.27,2,3.27,3.7,0,3-2.62,3.94-5.47,3.94H11.3V93.36Zm-2.28,6h1.48c1.87,0,2.68-.84,2.68-2.09s-.73-2-2.42-2H14.05Zm2.05,6.24c2.13,0,3.18-.67,3.18-2.13s-1-2.14-3.24-2.14h-2v4.27Z"/><path class="cls-3" d="M33.6,93.36v11.91h6.45v2.37H30.82V93.36Z"/><path class="cls-3" d="M47.86,93.36v14.28H45.09V93.36Z"/><path class="cls-3" d="M55.37,93.36l4,9.46,3.94-9.46h2.8L60,107.77H58.74L52.55,93.36Z"/><path class="cls-3" d="M79,93.36v2.16H72.92v3.79H78.8v2.15H72.92v4h6.3v2.18H70.15V93.36Z"/><path class="cls-3" d="M80.83,95.68a2.48,2.48,0,0,1,1.27-2.2,2.4,2.4,0,0,1,1.28-.35,2.49,2.49,0,0,1,1.29.34,2.44,2.44,0,0,1,.92.94,2.47,2.47,0,0,1,.34,1.27A2.52,2.52,0,0,1,85.58,97a2.54,2.54,0,0,1-3.48.91,2.48,2.48,0,0,1-1.27-2.2Zm.47,0a2.05,2.05,0,0,0,1,1.8,2,2,0,0,0,1,.28,2.08,2.08,0,0,0,1.06-.28,2.13,2.13,0,0,0,.76-.76,2.1,2.1,0,0,0,.28-1,2.08,2.08,0,0,0-.28-1,2.1,2.1,0,0,0-1.82-1,2.08,2.08,0,0,0-2.07,2.09Zm2.32-1.34a.88.88,0,0,1,.61.2.68.68,0,0,1,.24.54.72.72,0,0,1-.21.53.84.84,0,0,1-.54.24v0A.69.69,0,0,1,84,96a1.93,1.93,0,0,1,.34.48l.32.54H84l-.13-.24a4.12,4.12,0,0,0-.31-.54,1.22,1.22,0,0,0-.25-.28.53.53,0,0,0-.3-.07h-.23v1.13h-.5V94.34Zm-.19,1.18a.63.63,0,0,0,.37-.1.36.36,0,0,0,.14-.29.34.34,0,0,0-.14-.29.62.62,0,0,0-.37-.1h-.62v.78Z"/><path class="cls-4" d="M38.82,38.06l9.28,5.75a1,1,0,0,1,0,1.63L16.58,64.32a1,1,0,0,1-1.44-1l.33-1.63L3.8,73.47a1.85,1.85,0,0,0,1.25,3.15h0l68-.48a7.3,7.3,0,0,0,7.26-7.35v-67c0-1.61-2.45-2.35-3.58-1.21Z"/><path class="cls-5" d="M56.48,66l-.21-37.27a5.49,5.49,0,0,0-2.93-4.83L41.31,36a12.52,12.52,0,0,1,4,1.45A10.39,10.39,0,0,1,49.92,43c.91,2.37-.7,5.33-2.71,6.52a9.57,9.57,0,0,1-3.77,1.29,7.71,7.71,0,0,1-.77.49,7.51,7.51,0,0,1-3.24.93l-7.16,4.29A6.16,6.16,0,0,1,32.18,59a6.29,6.29,0,0,1-2.72,3.58,22.51,22.51,0,0,1-5.88,3c-2.72,1-5.78-.92-6.8-3.39a5.5,5.5,0,0,1-.31-1L8.9,68.79a5.45,5.45,0,0,0,4.86,2.88L51,71.46A5.47,5.47,0,0,0,56.48,66Z"/><path class="cls-6" d="M49.14,20.26l-37.27.21A5.5,5.5,0,0,0,6.41,26l.21,37.27a5.48,5.48,0,0,0,5.52,5.45l37.27-.21A5.48,5.48,0,0,0,54.87,63l-.22-37.27A5.48,5.48,0,0,0,49.14,20.26Zm-4.72,25L20.77,59.48a.72.72,0,0,1-1.08-.76l2.87-14.43L20,30.36a.72.72,0,0,1,1.09-.75L44.43,44.08A.71.71,0,0,1,44.42,45.3Z"/><path class="cls-7" d="M20.36,55.35l2.2-11.06L20,30.36a.72.72,0,0,1,1.09-.75l15.35,9.5,16.84-17a5.46,5.46,0,0,0-4.11-1.83l-37.27.21A5.5,5.5,0,0,0,6.41,26l.21,37.27a5.5,5.5,0,0,0,1.87,4.09Z"/><path class="cls-7" d="M20.93,35.53l-1-5.17a.72.72,0,0,1,1.09-.75l15.35,9.5,16.84-17a5.46,5.46,0,0,0-4.11-1.83l-37.27.21a5.46,5.46,0,0,0-4.18,2Z"/><path class="cls-5" d="M79.76,37.12a11.5,11.5,0,1,0,0,15.88Z"/><circle class="cls-8" cx="71.97" cy="42.61" r="10.98"/></g></g></g></svg>