<svg xmlns="http://www.w3.org/2000/svg" xmlns:xlink="http://www.w3.org/1999/xlink" viewBox="0 0 151.05 106.88"><defs><style>.cls-1{fill:#29bdef;}.cls-2{fill:#164194;}.cls-3{fill:url(#Degradado_sin_nombre_65);}.cls-4{fill:url(#Degradado_sin_nombre_76);}.cls-5{fill:url(#Degradado_sin_nombre_81);}.cls-6{fill:url(#Degradado_sin_nombre_71);}.cls-7{fill:url(#Degradado_sin_nombre_13);}.cls-8{fill:url(#Degradado_sin_nombre_58);}.cls-9{fill:url(#Degradado_sin_nombre_13-2);}.cls-10{fill:url(#Degradado_sin_nombre_30);}.cls-11{fill:url(#Degradado_sin_nombre_13-3);}.cls-12{fill:url(#Degradado_sin_nombre_30-2);}.cls-13{fill:url(#Degradado_sin_nombre_13-4);}.cls-14{fill:url(#Degradado_sin_nombre_30-3);}</style><radialGradient id="Degradado_sin_nombre_65" cx="4621.04" cy="-2826.96" fx="4645.53520396775" r="24.55" gradientTransform="translate(5339.31 1310.54) rotate(-135)" gradientUnits="userSpaceOnUse"><stop offset="0.15" stop-color="#29bdef"/><stop offset="0.39" stop-color="#23b4e9"/><stop offset="0.62" stop-color="#1ba7e0"/><stop offset="0.87" stop-color="#007bc2"/></radialGradient><radialGradient id="Degradado_sin_nombre_76" cx="2428.71" cy="-3249.25" fx="2435.489473825684" r="10.83" gradientTransform="translate(3370.15 2487.29) rotate(-90)" gradientUnits="userSpaceOnUse"><stop offset="0.15" stop-color="#29bdef"/><stop offset="0.39" stop-color="#23b4e9"/><stop offset="0.62" stop-color="#1ba7e0"/><stop offset="0.87" stop-color="#007bc2"/></radialGradient><radialGradient id="Degradado_sin_nombre_81" cx="2428.71" cy="-3330.79" fx="2435.4894738256835" r="10.83" gradientTransform="translate(3370.15 2487.29) rotate(-90)" gradientUnits="userSpaceOnUse"><stop offset="0.15" stop-color="#29bdef"/><stop offset="0.39" stop-color="#23b4e9"/><stop offset="0.62" stop-color="#1ba7e0"/><stop offset="0.87" stop-color="#007bc2"/></radialGradient><radialGradient id="Degradado_sin_nombre_71" cx="2485.28" cy="-3290.03" fx="2492.0644263862173" r="10.83" gradientTransform="translate(3370.15 2487.29) rotate(-90)" gradientUnits="userSpaceOnUse"><stop offset="0.14" stop-color="#29bdef"/><stop offset="0.39" stop-color="#23b4e9"/><stop offset="0.62" stop-color="#1ba7e0"/><stop offset="0.87" stop-color="#007bc2"/></radialGradient><linearGradient id="Degradado_sin_nombre_13" x1="91.4" y1="14.54" x2="59.51" y2="30.79" gradientUnits="userSpaceOnUse"><stop offset="0.04" stop-color="#003869"/><stop offset="0.34" stop-color="#1961ac"/><stop offset="0.41" stop-color="#155ba2"/><stop offset="0.54" stop-color="#0b4a86"/><stop offset="0.65" stop-color="#003869"/><stop offset="1" stop-color="#1667b1"/></linearGradient><linearGradient id="Degradado_sin_nombre_58" x1="89.72" y1="11.94" x2="61.24" y2="26.45" gradientUnits="userSpaceOnUse"><stop offset="0.21" stop-color="#29bdef"/><stop offset="0.57" stop-color="#23b4e9"/><stop offset="0.91" stop-color="#1ba7e0"/><stop offset="0.98" stop-color="#007bc2"/></linearGradient><linearGradient id="Degradado_sin_nombre_13-2" x1="91.48" y1="14.56" x2="59.47" y2="30.88" xlink:href="#Degradado_sin_nombre_13"/><linearGradient id="Degradado_sin_nombre_30" x1="89.75" y1="11.98" x2="66.59" y2="23.79" gradientUnits="userSpaceOnUse"><stop offset="0.21" stop-color="#29bdef"/><stop offset="0.62" stop-color="#23b4e9"/><stop offset="1" stop-color="#1ba7e0"/></linearGradient><linearGradient id="Degradado_sin_nombre_13-3" x1="138.87" y1="-249.8" x2="106.86" y2="-233.48" gradientTransform="translate(323.25 63.19) rotate(-115.55)" xlink:href="#Degradado_sin_nombre_13"/><linearGradient id="Degradado_sin_nombre_30-2" x1="137.14" y1="-252.38" x2="113.98" y2="-240.58" gradientTransform="translate(323.25 63.19) rotate(-115.55)" xlink:href="#Degradado_sin_nombre_30"/><linearGradient id="Degradado_sin_nombre_13-4" x1="53.74" y1="-137.29" x2="21.73" y2="-120.97" gradientTransform="matrix(0.43, -0.9, -0.9, -0.43, -34.16, 34.9)" xlink:href="#Degradado_sin_nombre_13"/><linearGradient id="Degradado_sin_nombre_30-3" x1="52.01" y1="-139.87" x2="28.85" y2="-128.06" gradientTransform="matrix(0.43, -0.9, -0.9, -0.43, -34.16, 34.9)" xlink:href="#Degradado_sin_nombre_30"/></defs><g id="Capa_2" data-name="Capa 2"><g id="Capa_1-2" data-name="Capa 1"><path class="cls-1" d="M8.13,93.49v2.62A5.43,5.43,0,0,0,4.56,94.6c-1.22,0-1.88.6-1.88,1.45s.27,1.3,2.23,2.37c2.66,1.47,3.8,2.48,3.8,4.6s-1.82,3.86-4.46,3.86a7.9,7.9,0,0,1-4.17-1.24V102.8A5.59,5.59,0,0,0,4,104.69c1.22,0,2-.7,2-1.58s-.26-1.41-2.82-2.79C1.34,99.29,0,98.19,0,96.13s1.71-3.69,4.44-3.69A6.9,6.9,0,0,1,8.13,93.49Z"/><path class="cls-1" d="M16.09,92.62c2.91,0,4.54,1.45,4.54,3.55a3.11,3.11,0,0,1-2.08,3c2.1.52,3.22,1.92,3.22,3.66,0,2.93-2.58,3.87-5.39,3.87H11.14V92.62Zm-2.25,6h1.47c1.83,0,2.64-.83,2.64-2.07s-.72-1.94-2.39-1.94H13.84Zm2,6.14c2.1,0,3.13-.66,3.13-2.1s-.95-2.1-3.2-2.1h-2v4.2Z"/><path class="cls-2" d="M32.08,92.62l8.73,9.93V92.62h2.66v14.07h-2.4l-8.66-9.86v9.86H29.75V92.62Z"/><path class="cls-2" d="M56.81,92.62v2.13h-6v3.73h5.8v2.13h-5.8v3.94H57v2.14H48.07V92.62Z"/><path class="cls-2" d="M72.66,92.62v2.31h-5v11.76H65V94.93H60V92.62Z"/><path class="cls-2" d="M77.46,92.62,81,101.7l3.72-9.08H87l3.71,9.08,3.57-9.08H97l-5.8,14.2H90.17L85.88,96.36l-4.35,10.46H80.45L74.7,92.62Z"/><path class="cls-2" d="M114.27,99.64c0,3.84-2.81,7.24-7.76,7.24-4.75,0-7.59-3.36-7.59-7.2,0-3.57,2.49-7.24,7.67-7.24C111.23,92.44,114.27,95.64,114.27,99.64Zm-12.57,0a4.67,4.67,0,0,0,4.83,4.75c2.76,0,5-1.68,5-4.79a4.68,4.68,0,0,0-4.87-4.75A4.6,4.6,0,0,0,101.7,99.68Z"/><path class="cls-2" d="M123,92.62c3.06,0,4.63,1.82,4.63,4.07a3.57,3.57,0,0,1-2.34,3.49c.87.51,1.32,1,2.46,2.86l2.17,3.65h-3.08l-1.94-3.34c-1.26-2.18-2.08-2.58-3.18-2.58H121v5.92h-2.72V92.62ZM121,98.77h1.38c1.43,0,2.54-.39,2.54-2.06,0-1.26-.76-2-2.27-2H121Z"/><path class="cls-2" d="M135.82,92.62v6.46l5.64-6.46h3.17l-5.81,6.65,7.11,7.42H142.4l-6.58-6.89v6.89h-2.74V92.62Z"/><path class="cls-2" d="M146.17,94.89a2.43,2.43,0,0,1,.32-1.21,2.33,2.33,0,0,1,.9-.89,2.43,2.43,0,0,1,2.46,0,2.31,2.31,0,0,1,.88.9,2.36,2.36,0,0,1,.32,1.21,2.42,2.42,0,0,1-.33,1.24,2.43,2.43,0,0,1-2.1,1.2,2.48,2.48,0,0,1-2.13-1.22A2.44,2.44,0,0,1,146.17,94.89Zm.45,0a2,2,0,0,0,.27,1,2,2,0,0,0,.73.72,1.88,1.88,0,0,0,1,.26,2,2,0,0,0,1-.27,1.94,1.94,0,0,0,.73-.72,2,2,0,0,0,.26-1,1.91,1.91,0,0,0-.27-1,2,2,0,0,0-2.72-.74,2,2,0,0,0-1,1.73Zm2.23-1.28a.8.8,0,0,1,.58.2.64.64,0,0,1,.22.51.72.72,0,0,1-.19.51.78.78,0,0,1-.52.23h0a.82.82,0,0,1,.25.16,2.85,2.85,0,0,1,.33.47l.3.52h-.59l-.12-.23a3.34,3.34,0,0,0-.29-.52,1.37,1.37,0,0,0-.25-.27.52.52,0,0,0-.28-.07h-.22v1.09h-.48V93.61Zm-.19,1.13a.53.53,0,0,0,.36-.1.35.35,0,0,0,0-.55.58.58,0,0,0-.35-.09h-.59v.74Z"/><circle class="cls-3" cx="75.7" cy="45.16" r="15.53"/><circle class="cls-4" cx="116.48" cy="61.38" r="4.8"/><circle class="cls-5" cx="34.94" cy="61.38" r="4.8"/><circle class="cls-6" cx="75.7" cy="4.8" r="4.8"/><path class="cls-7" d="M95.09,22.5a19.14,19.14,0,0,0-2-2.77l.07,0c-3.51-4.32-9.24-7-15.37-7.72a24.68,24.68,0,0,0-22.86,9.72A4.86,4.86,0,0,0,56.69,29l.08,0a4.54,4.54,0,0,0,5.74-1.35,24.63,24.63,0,0,1,16.22-10,19.69,19.69,0,0,1,10,8.56,3.64,3.64,0,0,0,4.35,1.59l.07,0A3.65,3.65,0,0,0,95.09,22.5Z"/><path class="cls-8" d="M63.92,14.25a23.65,23.65,0,0,0-8.22,6.52c4.22-2.66,10.21.8,14.76-.21,1.49-.81,2-1.28,8.23-2.88,4.9-.74,10.72.94,15.16,3C87.91,11.9,73.9,9.49,63.92,14.25Z"/><path class="cls-9" d="M95.19,22.56a19.51,19.51,0,0,0-2-2.78l.07,0c-3.53-4.34-9.28-7.08-15.43-7.75a24.7,24.7,0,0,0-23,9.76,4.88,4.88,0,0,0,1.77,7.23l.09.05a4.57,4.57,0,0,0,5.76-1.37,24.77,24.77,0,0,1,16.28-10,20,20,0,0,1,10.06,8.61,3.65,3.65,0,0,0,4.36,1.59l.07,0A3.67,3.67,0,0,0,95.19,22.56Z"/><path class="cls-10" d="M63.9,14.27c-4.43,2.12-1.3,11.33,6.56,6.34,1.5-.81,2-1.29,8.26-2.89,4.92-.74,10.76,1,15.23,3C88,11.91,73.9,9.48,63.9,14.27Z"/><path class="cls-11" d="M43.59,38.83a19.78,19.78,0,0,0-1.63,3,.17.17,0,0,1,0-.07c-2.39,5-2.38,11.42-.33,17.26a24.71,24.71,0,0,0,18.7,16.5,4.88,4.88,0,0,0,5.76-4.72v-.1a4.56,4.56,0,0,0-3.71-4.61,24.65,24.65,0,0,1-16-10.37A19.63,19.63,0,0,1,46.39,52a19.88,19.88,0,0,1,3.36-9,3.65,3.65,0,0,0-.44-4.62l-.05,0A3.67,3.67,0,0,0,43.59,38.83Z"/><path class="cls-12" d="M49.61,70.63c3.82,3.08,10.78-3.72,2.89-8.66-1.38-1-2-1.2-6.17-6.2-2.79-4.12-3.79-10.12-3.86-15C37.1,49.92,41,63.67,49.61,70.63Z"/><path class="cls-13" d="M107.26,38.83a19,19,0,0,1,1.64,3s0-.05,0-.07c2.39,5,2.38,11.42.33,17.26a24.71,24.71,0,0,1-18.7,16.5,4.88,4.88,0,0,1-5.76-4.72v-.1a4.56,4.56,0,0,1,3.71-4.61,24.65,24.65,0,0,0,16-10.37,19.63,19.63,0,0,0-.06-3.75,19.88,19.88,0,0,0-3.36-9,3.65,3.65,0,0,1,.44-4.62l0,0A3.66,3.66,0,0,1,107.26,38.83Z"/><path class="cls-14" d="M101.24,70.63c-3.81,3.08-10.77-3.72-2.88-8.66,1.38-1,2-1.2,6.17-6.2,2.79-4.12,3.79-10.12,3.85-15C113.76,49.92,109.89,63.67,101.24,70.63Z"/></g></g></svg>