<svg xmlns="http://www.w3.org/2000/svg" viewBox="0 0 89.36 89.36"><defs><style>.cls-1{fill:#164194;}</style></defs><g id="Capa_2" data-name="Capa 2"><g id="Capa_1-2" data-name="Capa 1"><path class="cls-1" d="M44.68,0h0A44.67,44.67,0,0,0,0,44.68H0A44.67,44.67,0,0,0,44.68,89.36h0A44.68,44.68,0,0,0,44.68,0ZM69,54.78a17.91,17.91,0,0,1-1.14,5.95,12.46,12.46,0,0,1-7.16,7.16A17.91,17.91,0,0,1,54.78,69c-2.61.12-3.45.15-10.1.15s-7.49,0-10.1-.15a17.91,17.91,0,0,1-5.95-1.14,12.46,12.46,0,0,1-7.16-7.16,17.91,17.91,0,0,1-1.14-5.95c-.12-2.61-.15-3.45-.15-10.1s0-7.49.15-10.1a17.91,17.91,0,0,1,1.14-5.95,12.46,12.46,0,0,1,7.16-7.16,17.91,17.91,0,0,1,5.95-1.14c2.61-.12,3.45-.15,10.1-.15s7.49,0,10.1.15a17.91,17.91,0,0,1,5.95,1.14,12.46,12.46,0,0,1,7.16,7.16A17.91,17.91,0,0,1,69,34.58c.12,2.61.15,3.45.15,10.1S69.15,52.17,69,54.78Z"/><path class="cls-1" d="M63.78,30.23a8.15,8.15,0,0,0-4.65-4.65,13.73,13.73,0,0,0-4.55-.84c-2.58-.12-3.36-.14-9.9-.14s-7.32,0-9.9.14a13.79,13.79,0,0,0-4.55.84,8.15,8.15,0,0,0-4.65,4.65,13.79,13.79,0,0,0-.84,4.55c-.12,2.58-.14,3.36-.14,9.9s0,7.32.14,9.9a13.73,13.73,0,0,0,.84,4.55,8.07,8.07,0,0,0,4.65,4.65,13.79,13.79,0,0,0,4.55.84c2.58.12,3.36.14,9.9.14s7.32,0,9.9-.14a13.73,13.73,0,0,0,4.55-.84,8.07,8.07,0,0,0,4.65-4.65,13.73,13.73,0,0,0,.84-4.55c.12-2.58.14-3.36.14-9.9s0-7.32-.14-9.9A13.79,13.79,0,0,0,63.78,30.23ZM57,47.14A12.59,12.59,0,1,1,42.22,32.33,12.63,12.63,0,0,1,57,47.14Zm.73-12.6A2.94,2.94,0,1,1,60.7,31.6,2.93,2.93,0,0,1,57.76,34.54Z"/><path class="cls-1" d="M46.71,36.76a8.18,8.18,0,1,0,5.89,5.89A8.18,8.18,0,0,0,46.71,36.76Z"/></g></g></svg>