<svg xmlns="http://www.w3.org/2000/svg" viewBox="0 0 89.36 89.36"><defs><style>.cls-1{fill:#164194;}</style></defs><g id="Capa_2" data-name="Capa 2"><g id="Capa_1-2" data-name="Capa 1"><path class="cls-1" d="M44.68,0h0a44.68,44.68,0,0,0,0,89.36h0A44.67,44.67,0,0,0,89.36,44.68h0A44.67,44.67,0,0,0,44.68,0Zm-11,64.59H24.42V34.72h9.25ZM29,30.81a5.52,5.52,0,1,1,5.47-5.51A5.49,5.49,0,0,1,29,30.81ZM68.32,64.59h-9.2V48.91c0-4.3-1.64-6.7-5-6.7-3.7,0-5.63,2.5-5.63,6.7V64.59H39.58V34.72h8.87v4a10.4,10.4,0,0,1,9-4.93c6.33,0,10.87,3.87,10.87,11.87Z"/></g></g></svg>