<svg xmlns="http://www.w3.org/2000/svg" viewBox="0 0 89.36 89.36"><defs><style>.cls-1{fill:#164194;}</style></defs><g id="Capa_2" data-name="Capa 2"><g id="Capa_1-2" data-name="Capa 1"><path class="cls-1" d="M44.68,0A44.68,44.68,0,0,0,.22,40.33C.08,41.76,0,43.21,0,44.68S.08,47.6.22,49A44.68,44.68,0,0,0,44.68,89.36h0A44.67,44.67,0,0,0,89.36,44.68h0A44.67,44.67,0,0,0,44.68,0Zm20.4,34.22C65.75,49,54.71,65.53,35.16,65.53A29.85,29.85,0,0,1,19,60.8a21.14,21.14,0,0,0,15.58-4.36,10.54,10.54,0,0,1-9.83-7.31A10.65,10.65,0,0,0,29.53,49a10.54,10.54,0,0,1-8.44-10.46,10.41,10.41,0,0,0,4.77,1.32,10.53,10.53,0,0,1-3.26-14,29.88,29.88,0,0,0,21.69,11,10.53,10.53,0,0,1,17.94-9.6,21.11,21.11,0,0,0,6.68-2.56,10.51,10.51,0,0,1-4.62,5.82,21.1,21.1,0,0,0,6-1.65A21.42,21.42,0,0,1,65.08,34.22Z"/></g></g></svg>