<svg xmlns="http://www.w3.org/2000/svg" viewBox="0 0 89.36 89.36"><defs><style>.cls-1{fill:#164194;}</style></defs><g id="Capa_2" data-name="Capa 2"><g id="Capa_1-2" data-name="Capa 1"><polygon class="cls-1" points="37.37 55.31 56.06 44.68 37.37 34.05 37.37 55.31"/><path class="cls-1" d="M44.68,0A44.68,44.68,0,1,0,89.36,44.68,44.67,44.67,0,0,0,44.68,0ZM71.45,58.22a7,7,0,0,1-4.94,5c-4.35,1.18-21.83,1.18-21.83,1.18s-17.47,0-21.83-1.18a7,7,0,0,1-4.94-5c-1.17-4.39-1.17-13.54-1.17-13.54s0-9.15,1.17-13.54a7,7,0,0,1,4.94-5C27.21,25,44.68,25,44.68,25s17.48,0,21.83,1.18a7,7,0,0,1,4.94,5c1.17,4.39,1.17,13.54,1.17,13.54S72.62,53.83,71.45,58.22Z"/></g></g></svg>