<svg xmlns="http://www.w3.org/2000/svg" viewBox="0 0 98.66 61.65"><defs><style>.cls-1{fill:#0f468c;}.cls-2{fill:#fff;}</style></defs><g id="Capa_2" data-name="Capa 2"><g id="Capa_1-2" data-name="Capa 1"><path class="cls-1" d="M17.55,25.63a5.85,5.85,0,1,0-7.65,0A13.94,13.94,0,0,0,0,36.73H27.45A13.94,13.94,0,0,0,17.55,25.63Z"/><path class="cls-2" d="M55.18,35.48a2.68,2.68,0,0,0-.84-2A7.35,7.35,0,0,0,51.52,32a9.06,9.06,0,0,1-4-2.2,4.87,4.87,0,0,1-1.26-3.45,5,5,0,0,1,1.24-3.49,5.22,5.22,0,0,1,3.4-1.62V18.39h1.94v2.85a5,5,0,0,1,3.39,1.83,6.57,6.57,0,0,1,1.21,4.19H55a4.56,4.56,0,0,0-.86-2.91,2.87,2.87,0,0,0-2.35-1.08,3.24,3.24,0,0,0-2.37.8,3,3,0,0,0-.81,2.23,2.71,2.71,0,0,0,.86,2.11,8,8,0,0,0,2.84,1.43,12.18,12.18,0,0,1,3.09,1.41,5.06,5.06,0,0,1,1.64,1.8,5.24,5.24,0,0,1,.52,2.4A4.79,4.79,0,0,1,56.26,39a5.84,5.84,0,0,1-3.69,1.59V43H50.65V40.57a5.59,5.59,0,0,1-3.78-1.72,5.83,5.83,0,0,1-1.37-4.07h2.4a3.84,3.84,0,0,0,1,2.78,3.59,3.59,0,0,0,2.68,1,4,4,0,0,0,2.68-.82A2.75,2.75,0,0,0,55.18,35.48Z"/><path class="cls-2" d="M27.26,19.15l-1.51-.59A29.25,29.25,0,0,1,52.86,0,28.83,28.83,0,0,1,73.6,8.71L72.45,9.84A27.28,27.28,0,0,0,52.86,1.62,27.62,27.62,0,0,0,27.26,19.15Z"/><polygon class="cls-2" points="64.49 10.54 64.49 8.91 72.48 8.94 71.92 0.97 73.54 0.86 74.21 10.57 64.49 10.54"/><path class="cls-2" d="M51.29,61.65a28.51,28.51,0,0,1-6.9-.84,28.88,28.88,0,0,1-18-13.44l1.4-.83a27.23,27.23,0,0,0,17,12.7A27.65,27.65,0,0,0,73.85,48.38l1.32.93A29.27,29.27,0,0,1,51.29,61.65Z"/><polygon class="cls-2" points="35.64 47.79 35.25 49.36 27.5 47.41 26.12 55.28 24.53 55 26.21 45.41 35.64 47.79"/><path class="cls-2" d="M33.21,40.34H3.86L4,39.4a14.78,14.78,0,0,1,9.25-11.34,6.66,6.66,0,1,1,10.55,0A14.78,14.78,0,0,1,33.06,39.4ZM5.8,38.72H31.27a13.18,13.18,0,0,0-9.13-9.52l-1.44-.41,1.13-1a5,5,0,1,0-6.59,0l1.13,1-1.44.41A13.18,13.18,0,0,0,5.8,38.72Z"/><path class="cls-1" d="M83,27a5.86,5.86,0,1,0-7.65,0,13.91,13.91,0,0,0-9.9,11.1H92.89A13.91,13.91,0,0,0,83,27Z"/><path class="cls-2" d="M98.66,41.74H69.31l.15-.94A14.77,14.77,0,0,1,78.7,29.46a6.66,6.66,0,1,1,10.56,0A14.76,14.76,0,0,1,98.51,40.8ZM71.25,40.12H96.72a13.17,13.17,0,0,0-9.14-9.52l-1.43-.41,1.13-1a5,5,0,1,0-6.59,0l1.13,1-1.44.41A13.16,13.16,0,0,0,71.25,40.12Z"/></g></g></svg>