<svg xmlns="http://www.w3.org/2000/svg" viewBox="0 0 86.66 67.41"><defs><style>.cls-1{fill:#144390;}.cls-2{fill:#fff;}.cls-3{fill:#64c6f2;}</style></defs><g id="Capa_2" data-name="Capa 2"><g id="Capa_1-2" data-name="Capa 1"><path class="cls-1" d="M36.49,31.87c0-12.72,11.23-23,25.08-23,13.16,0,23.95,9.31,25,21.15h.1V55.06L59.12,54.8C46.42,53.67,36.49,43.84,36.49,31.87Z"/><path class="cls-2" d="M56.38,40.76c0-12.72-11.23-23-25.08-23-13.16,0-24,9.31-25,21.15h-.1V64l27.54-.26C46.45,62.56,56.38,52.72,56.38,40.76Z"/><path class="cls-2" d="M84.68,50.19l-28.24-.26C43.13,48.74,33.13,38.59,33.13,26.31c0-13.09,11.56-23.73,25.77-23.73,13.09,0,24.21,9.24,25.62,21.14h.16ZM58.9,4C45.45,4,34.51,14,34.51,26.31c0,11.56,9.46,21.12,22,22.24l26.78.25V25.11h0l-.05-.63C82.19,13,71.51,4,58.9,4Z"/><path class="cls-1" d="M0,67.41V40.94H.16C1.57,29,12.68,19.79,25.77,19.79c14.21,0,25.77,10.65,25.77,23.73,0,12.28-10,22.44-23.26,23.62ZM1.38,42.32V66l26.84-.25C40.7,64.64,50.16,55.08,50.16,43.52c0-12.32-10.94-22.35-24.39-22.35-12.61,0-23.28,9-24.3,20.52Z"/><path class="cls-3" d="M18.58,52.08a6.71,6.71,0,0,1,.79-3.36,14.25,14.25,0,0,1,2.3-2.88,21.8,21.8,0,0,0,2.39-2.69,3.92,3.92,0,0,0,.66-2.28,2.56,2.56,0,0,0-.91-2.1A3.64,3.64,0,0,0,21.37,38a9.72,9.72,0,0,0-2.69.36A17.55,17.55,0,0,0,16,39.44L15.42,35a18.54,18.54,0,0,1,3.3-1.2,15.3,15.3,0,0,1,3.78-.41,8.56,8.56,0,0,1,4,.86,6.3,6.3,0,0,1,2.6,2.37,6.58,6.58,0,0,1,.9,3.43,6.43,6.43,0,0,1-.88,3.33,18,18,0,0,1-2.69,3.29,15.7,15.7,0,0,0-2.16,2.57,4.77,4.77,0,0,0-.74,2.62v.6H18.58Zm0,3.05h4.89v5.12H18.58Z"/><path class="cls-1" d="M26.24,59.56H20v-6.5h6.28Zm-4.9-1.38h3.52V54.44H21.34Zm4.94-6.41H20V50.7A7.33,7.33,0,0,1,20.85,47a14.85,14.85,0,0,1,2.4-3,21.13,21.13,0,0,0,2.31-2.59,3.26,3.26,0,0,0,.54-1.89,1.94,1.94,0,0,0-.66-1.58,3.06,3.06,0,0,0-2-.59,9.16,9.16,0,0,0-2.5.33,17.18,17.18,0,0,0-2.62,1l-.87.43-.7-5.9L17.2,33a19.14,19.14,0,0,1,3.42-1.25,16.17,16.17,0,0,1,3.95-.44,9.3,9.3,0,0,1,4.3.95,6.89,6.89,0,0,1,2.87,2.62,7.2,7.2,0,0,1,1,3.78,7,7,0,0,1-1,3.69A18.17,18.17,0,0,1,29,45.77a15.76,15.76,0,0,0-2.07,2.46,4.07,4.07,0,0,0-.62,2.25Zm-4.93-1.38h3.54a5.44,5.44,0,0,1,.85-2.9A16.63,16.63,0,0,1,28,44.8a17,17,0,0,0,2.59-3.16,5.74,5.74,0,0,0,.78-3,5.89,5.89,0,0,0-.8-3.06,5.54,5.54,0,0,0-2.32-2.11,7.92,7.92,0,0,0-3.67-.79,14.89,14.89,0,0,0-3.61.39,15.74,15.74,0,0,0-2.72.95l.36,3a14.23,14.23,0,0,1,2-.71,10.38,10.38,0,0,1,2.88-.39,4.42,4.42,0,0,1,2.89.91,3.29,3.29,0,0,1,1.15,2.64,4.61,4.61,0,0,1-.78,2.67A23.12,23.12,0,0,1,24.23,45,13.48,13.48,0,0,0,22,47.68,5.89,5.89,0,0,0,21.35,50.39Z"/><polygon class="cls-2" points="79.36 0 65.79 27.05 62.13 20.55 54.87 20.55 63.16 35.19 68.6 35.19 86.61 0 79.36 0"/></g></g></svg>