<svg xmlns="http://www.w3.org/2000/svg" viewBox="0 0 99.16 67.36"><defs><style>.cls-1{fill:#fff;}.cls-2{fill:#144390;}.cls-3{fill:#0f468c;}.cls-4{fill:#64c6f2;}</style></defs><g id="Capa_2" data-name="Capa 2"><g id="Capa_1-2" data-name="Capa 1"><circle class="cls-1" cx="20.44" cy="36.71" r="20.44"/><path class="cls-2" d="M23.48,54.88A21.07,21.07,0,1,1,44.55,33.81,21.1,21.1,0,0,1,23.48,54.88Zm0-40.63A19.56,19.56,0,1,0,43,33.81,19.59,19.59,0,0,0,23.48,14.25Z"/><path class="cls-3" d="M26.44,38.87A2.52,2.52,0,0,0,25.66,37,7.05,7.05,0,0,0,23,35.62a8.44,8.44,0,0,1-3.75-2,4.49,4.49,0,0,1-1.18-3.2,4.68,4.68,0,0,1,1.15-3.25,4.89,4.89,0,0,1,3.17-1.51V23h1.8v2.65a4.67,4.67,0,0,1,3.16,1.7,6.14,6.14,0,0,1,1.13,3.9H26.3a4.21,4.21,0,0,0-.81-2.71,2.66,2.66,0,0,0-2.19-1,3,3,0,0,0-2.19.74,2.75,2.75,0,0,0-.76,2.07,2.51,2.51,0,0,0,.8,2,7.28,7.28,0,0,0,2.64,1.33,11.16,11.16,0,0,1,2.88,1.32,4.62,4.62,0,0,1,1.52,1.67,4.89,4.89,0,0,1,.49,2.23,4.44,4.44,0,0,1-1.23,3.28A5.47,5.47,0,0,1,24,43.6v2.3H22.23V43.6A5.22,5.22,0,0,1,18.71,42a5.4,5.4,0,0,1-1.27-3.79h2.23a3.57,3.57,0,0,0,.88,2.59,3.34,3.34,0,0,0,2.5.9,3.76,3.76,0,0,0,2.49-.76A2.58,2.58,0,0,0,26.44,38.87Z"/><path class="cls-2" d="M12,17.81l-1.41-.54A27.23,27.23,0,0,1,35.82,0a26.86,26.86,0,0,1,19.3,8.1L54,9.16A25.31,25.31,0,0,0,35.82,1.51,25.7,25.7,0,0,0,12,17.81Z"/><polygon class="cls-2" points="46.64 9.8 46.64 8.29 54.07 8.32 53.56 0.91 55.06 0.8 55.69 9.83 46.64 9.8"/><path class="cls-2" d="M35.82,67.36A27.23,27.23,0,0,1,10.6,50.09L12,49.55A25.71,25.71,0,0,0,35.82,65.86,25.35,25.35,0,0,0,54,58.21l1.08,1A26.82,26.82,0,0,1,35.82,67.36Z"/><polygon class="cls-2" points="55.06 66.56 53.56 66.46 54.08 59.05 46.65 59.07 46.64 57.56 55.69 57.53 55.06 66.56"/><path class="cls-2" d="M99.16,31.06H58.48V8.73H99.16ZM60,29.56H97.65V10.24H60Z"/><rect class="cls-1" x="61.4" y="10.76" width="34.85" height="18.28"/><circle class="cls-4" cx="76.64" cy="20.24" r="7.41"/><path class="cls-2" d="M79.1,27.53a8.12,8.12,0,1,1,8.11-8.12A8.13,8.13,0,0,1,79.1,27.53Zm0-14.73a6.61,6.61,0,1,0,6.6,6.61A6.62,6.62,0,0,0,79.1,12.8Z"/><path class="cls-3" d="M80.32,21a.9.9,0,0,0-.28-.68,2.43,2.43,0,0,0-1-.5,3.15,3.15,0,0,1-1.36-.74,1.65,1.65,0,0,1-.42-1.16,1.68,1.68,0,0,1,.41-1.18,1.77,1.77,0,0,1,1.15-.55v-1h.65v1a1.7,1.7,0,0,1,1.15.61,2.26,2.26,0,0,1,.41,1.42h-.81a1.58,1.58,0,0,0-.29-1,1,1,0,0,0-.79-.36,1.09,1.09,0,0,0-.8.27,1,1,0,0,0-.28.75.89.89,0,0,0,.3.71,2.67,2.67,0,0,0,1,.49,3.78,3.78,0,0,1,1,.47,1.78,1.78,0,0,1,.56.61,1.86,1.86,0,0,1,.17.81,1.61,1.61,0,0,1-.44,1.19,2,2,0,0,1-1.25.53v.84H78.8v-.84a1.88,1.88,0,0,1-1.28-.58,1.94,1.94,0,0,1-.46-1.37h.81a1.3,1.3,0,0,0,.32.94,1.22,1.22,0,0,0,.9.32,1.39,1.39,0,0,0,.91-.27A1,1,0,0,0,80.32,21Z"/><path class="cls-2" d="M99.16,56.14H58.48V33.81H99.16ZM60,54.64H97.65V35.32H60Z"/><rect class="cls-1" x="61.4" y="35.84" width="34.85" height="18.28"/><circle class="cls-4" cx="76.64" cy="45.32" r="7.41"/><path class="cls-2" d="M79.1,52.61a8.12,8.12,0,1,1,8.11-8.12A8.13,8.13,0,0,1,79.1,52.61Zm0-14.73a6.61,6.61,0,1,0,6.6,6.61A6.62,6.62,0,0,0,79.1,37.88Z"/><path class="cls-3" d="M80.32,46.1a.9.9,0,0,0-.28-.68,2.43,2.43,0,0,0-1-.5,3.15,3.15,0,0,1-1.36-.74A1.65,1.65,0,0,1,77.31,43a1.68,1.68,0,0,1,.41-1.18,1.77,1.77,0,0,1,1.15-.55v-.95h.65v1a1.7,1.7,0,0,1,1.15.61,2.26,2.26,0,0,1,.41,1.42h-.81a1.6,1.6,0,0,0-.29-1,1,1,0,0,0-.79-.36,1.09,1.09,0,0,0-.8.27,1,1,0,0,0-.28.75.89.89,0,0,0,.3.71,2.67,2.67,0,0,0,1,.49,3.78,3.78,0,0,1,1,.47,1.78,1.78,0,0,1,.56.61,1.86,1.86,0,0,1,.17.81,1.61,1.61,0,0,1-.44,1.19,2,2,0,0,1-1.25.53v.84H78.8v-.84a1.88,1.88,0,0,1-1.28-.58,1.94,1.94,0,0,1-.46-1.37h.81a1.3,1.3,0,0,0,.32.94,1.18,1.18,0,0,0,.9.32,1.39,1.39,0,0,0,.91-.27A1,1,0,0,0,80.32,46.1Z"/></g></g></svg>